<svg width="46" height="65" viewBox="0 0 46 65" fill="none" xmlns="http://www.w3.org/2000/svg">
<path d="M0.966953 57.98L24.817 33.05C26.497 31.25 27.847 29.66 28.867 28.28C29.947 26.84 30.727 25.49 31.207 24.23C31.687 22.91 31.927 21.59 31.927 20.27C31.927 17.63 31.057 15.56 29.317 14.06C27.637 12.56 25.447 11.81 22.747 11.81C19.987 11.81 17.527 12.53 15.367 13.97C13.267 15.41 11.287 17.69 9.42695 20.81L1.05695 13.7C3.57695 9.44 6.69695 6.23 10.417 4.07C14.197 1.85 18.517 0.739996 23.377 0.739996C27.517 0.739996 31.117 1.55 34.177 3.17C37.297 4.79 39.697 7.04 41.377 9.92C43.057 12.8 43.897 16.16 43.897 20C43.897 22.58 43.567 24.92 42.907 27.02C42.307 29.12 41.257 31.22 39.757 33.32C38.317 35.36 36.307 37.67 33.727 40.25L16.357 57.98H0.966953ZM0.966953 65V57.98L11.407 54.38H45.247V65H0.966953Z" fill="url(#paint0_linear_63_145)"/>
<defs>
<linearGradient id="paint0_linear_63_145" x1="23.5" y1="-3.47619" x2="23.5" y2="72.1561" gradientUnits="userSpaceOnUse">
<stop stop-color="#72B6D3"/>
<stop offset="1" stop-color="#004572"/>
</linearGradient>
</defs>
</svg>
