<svg width="46" height="65" viewBox="0 0 46 65" fill="none" xmlns="http://www.w3.org/2000/svg">
<path d="M21.1688 64.9C16.9088 64.9 13.0088 64.15 9.46879 62.65C5.92879 61.09 2.95879 58.87 0.558789 55.99L8.65879 47.98C9.85879 49.78 11.5688 51.22 13.7888 52.3C16.0088 53.38 18.4088 53.92 20.9888 53.92C23.3888 53.92 25.4588 53.5 27.1988 52.66C28.9388 51.76 30.2888 50.53 31.2488 48.97C32.2688 47.35 32.7788 45.49 32.7788 43.39C32.7788 41.17 32.2688 39.28 31.2488 37.72C30.2888 36.16 28.8788 34.96 27.0188 34.12C25.1588 33.28 22.9388 32.86 20.3588 32.86C19.2188 32.86 18.0488 32.95 16.8488 33.13C15.6488 33.25 14.6288 33.46 13.7888 33.76L19.1888 26.92C20.6888 26.44 22.1588 26.05 23.5988 25.75C25.0988 25.39 26.4788 25.21 27.7388 25.21C30.9788 25.21 33.8888 25.99 36.4688 27.55C39.1088 29.05 41.1788 31.21 42.6788 34.03C44.2388 36.79 45.0188 40.06 45.0188 43.84C45.0188 48.04 44.0288 51.73 42.0488 54.91C40.0688 58.03 37.2788 60.49 33.6788 62.29C30.1388 64.03 25.9688 64.9 21.1688 64.9ZM13.7888 33.76V26.74L29.9888 7.93L44.0288 7.75L27.2888 26.92L13.7888 33.76ZM4.06879 11.35V0.729999H44.0288V7.75L34.0388 11.35H4.06879Z" fill="url(#paint0_linear_64_148)"/>
<defs>
<linearGradient id="paint0_linear_64_148" x1="23.5" y1="-4.47619" x2="23.5" y2="71.1561" gradientUnits="userSpaceOnUse">
<stop stop-color="#72B6D3"/>
<stop offset="1" stop-color="#004572"/>
</linearGradient>
</defs>
</svg>
