<svg  viewBox="0 0 41 40" fill="none" xmlns="http://www.w3.org/2000/svg">
<path d="M20.8125 3.125C17.4749 3.125 14.2123 4.1147 11.4373 5.96895C8.66218 7.8232 6.49927 10.4587 5.22204 13.5422C3.94481 16.6257 3.61063 20.0187 4.26176 23.2921C4.91288 26.5656 6.52007 29.5724 8.88008 31.9324C11.2401 34.2924 14.2469 35.8996 17.5204 36.5508C20.7938 37.2019 24.1868 36.8677 27.2703 35.5905C30.3538 34.3132 32.9893 32.1503 34.8436 29.3752C36.6978 26.6002 37.6875 23.3376 37.6875 20C37.6825 15.526 35.9031 11.2367 32.7395 8.07305C29.5759 4.90945 25.2865 3.12996 20.8125 3.125ZM20.8125 33.125C18.2166 33.125 15.679 32.3552 13.5206 30.913C11.3623 29.4708 9.67999 27.421 8.68659 25.0227C7.69319 22.6244 7.43327 19.9854 7.9397 17.4394C8.44613 14.8934 9.69617 12.5548 11.5317 10.7192C13.3673 8.88366 15.7059 7.63362 18.2519 7.12719C20.7979 6.62076 23.4369 6.88068 25.8352 7.87408C28.2335 8.86748 30.2834 10.5497 31.7255 12.7081C33.1677 14.8665 33.9375 17.4041 33.9375 20C33.9338 23.4798 32.5498 26.8161 30.0892 29.2767C27.6286 31.7373 24.2923 33.1213 20.8125 33.125ZM27.3109 24.8766C26.2874 26.2402 24.8608 27.2473 23.2332 27.7553C21.6056 28.2632 19.8594 28.2463 18.242 27.7068C16.6245 27.1673 15.2178 26.1327 14.2209 24.7494C13.2241 23.3661 12.6877 21.7043 12.6877 19.9992C12.6877 18.2942 13.2241 16.6323 14.2209 15.249C15.2178 13.8657 16.6245 12.8311 18.242 12.2916C19.8594 11.7522 21.6056 11.7352 23.2332 12.2431C24.8608 12.7511 26.2874 13.7582 27.3109 15.1219C27.4642 15.3182 27.5769 15.5431 27.6423 15.7835C27.7077 16.0239 27.7245 16.2749 27.6918 16.5218C27.6591 16.7688 27.5776 17.0067 27.4519 17.2218C27.3262 17.4369 27.1589 17.6247 26.9598 17.7744C26.7607 17.9241 26.5337 18.0326 26.2922 18.0936C26.0507 18.1547 25.7994 18.1669 25.5531 18.1297C25.3068 18.0925 25.0704 18.0067 24.8576 17.8771C24.6449 17.7475 24.4601 17.5768 24.3141 17.375C23.7631 16.6404 22.995 16.0978 22.1186 15.824C21.2421 15.5502 20.3017 15.5591 19.4306 15.8495C18.5595 16.1399 17.8018 16.697 17.2649 17.4419C16.728 18.1868 16.4391 19.0818 16.4391 20C16.4391 20.9182 16.728 21.8132 17.2649 22.5581C17.8018 23.303 18.5595 23.8601 19.4306 24.1505C20.3017 24.4409 21.2421 24.4498 22.1186 24.176C22.995 23.9022 23.7631 23.3596 24.3141 22.625C24.4589 22.4202 24.6433 22.2466 24.8563 22.1144C25.0694 21.9821 25.3069 21.894 25.5546 21.8552C25.8024 21.8163 26.0554 21.8276 26.2987 21.8883C26.5421 21.9489 26.7708 22.0578 26.9713 22.2085C27.1718 22.3591 27.34 22.5484 27.466 22.7652C27.5921 22.9821 27.6733 23.222 27.705 23.4707C27.7367 23.7195 27.7181 23.9721 27.6504 24.2136C27.5827 24.455 27.4673 24.6805 27.3109 24.8766Z" fill="#F1F1F1"/>
</svg>
