<svg width="664" height="162" viewBox="0 0 664 162" fill="none" xmlns="http://www.w3.org/2000/svg">
<path d="M175.289 79.2059C149.814 17.8286 110.273 5.2563 65.5641 22.1613" stroke="#1A1A18" stroke-width="3" stroke-linecap="round" stroke-dasharray="10 10"/>
<path d="M218 104.99C281.144 125.722 316.468 103.957 332.818 59.047" stroke="#1A1A18" stroke-width="3" stroke-linecap="round" stroke-dasharray="10 10"/>
<path d="M470.325 72.6523C447.756 10.1485 408.848 -4.26321 363.395 10.5277" stroke="#1A1A18" stroke-width="3" stroke-linecap="round" stroke-dasharray="10 10"/>
<path d="M516 123.858C579.096 144.734 614.47 123.05 630.923 78.1777" stroke="#1A1A18" stroke-width="3" stroke-linecap="round" stroke-dasharray="10 10"/>
<g clip-path="url(#clip0_670_1951)">
<path d="M320.036 38.3717C326.696 32.4464 336.871 33.1182 342.716 39.8683C343.078 40.2872 343.414 40.7191 343.725 41.164C344.142 41.7618 344.994 41.8168 345.462 41.2569L346.99 39.4274C347.323 39.0286 347.331 38.4497 347.02 38.0318C346.725 37.6359 346.415 37.2481 346.088 36.8692C338.611 28.2356 325.597 27.3768 317.078 34.9547C316.433 35.5285 315.834 36.1364 315.279 36.7722C314.863 37.2481 314.917 37.9778 315.404 38.3777L317.194 39.8503C317.647 40.2232 318.307 40.1692 318.695 39.7274C319.11 39.2545 319.556 38.7996 320.038 38.3707L320.036 38.3717Z" fill="#72B6D3"/>
<path d="M312.393 29.5463C323.855 19.3502 341.363 20.5048 351.424 32.1216C351.427 32.1246 351.43 32.1286 351.433 32.1316C351.873 32.6404 352.651 32.6444 353.082 32.1276L354.581 30.3331C354.577 29.7782 354.574 29.4203 354.57 28.8655C342.844 15.6072 322.67 14.3576 309.434 26.1313C308.279 27.159 307.22 28.2557 306.248 29.4063C305.853 29.8742 305.93 30.585 306.401 30.9739L308.187 32.4435C308.641 32.8174 309.311 32.7664 309.693 32.3165C310.518 31.3448 311.415 30.4171 312.393 29.5483V29.5463Z" fill="#72B6D3"/>
<path d="M304.749 20.7209C320.589 6.62985 344.565 7.82552 358.992 23.1272C359.445 23.6071 360.203 23.5981 360.626 23.0902L362.113 21.3087C362.474 20.8759 362.46 20.231 362.072 19.8232C345.98 2.93089 319.383 1.65424 301.791 17.3049C300.139 18.7754 298.631 20.349 297.253 22.0035C296.86 22.4744 296.936 23.1852 297.408 23.5741L299.192 25.0417C299.657 25.4246 300.332 25.3506 300.719 24.8867C301.944 23.4211 303.283 22.0255 304.749 20.7209Z" fill="#72B6D3"/>
<path d="M333.485 54.596C337.435 53.313 339.611 49.0276 338.345 45.0242C337.079 41.0209 332.851 38.8156 328.901 40.0986C324.951 41.3817 322.775 45.6671 324.041 49.6705C325.307 53.6738 329.535 55.8791 333.485 54.596Z" fill="#72B6D3"/>
<path d="M324.043 36.6446C330.912 30.5345 341.405 31.2287 347.432 38.1885L347.433 38.1888C347.806 38.6208 348.152 39.0663 348.472 39.5251L348.472 39.5253C348.71 39.8653 349.169 39.8792 349.415 39.584C349.416 39.584 349.416 39.5839 349.416 39.5839L350.942 37.7545L350.943 37.7542C351.123 37.5387 351.133 37.2164 350.956 36.978C350.668 36.5913 350.366 36.213 350.047 35.8439C342.752 27.4205 330.057 26.5837 321.747 33.9757L321.747 33.9757C321.118 34.5351 320.534 35.1279 319.992 35.7484L324.043 36.6446ZM324.043 36.6446L324.043 36.6445C323.544 37.0884 323.083 37.5582 322.656 38.0449L322.656 38.0451C322.446 38.2845 322.093 38.3125 321.849 38.1118L321.849 38.1116L320.059 36.639L320.058 36.6387M324.043 36.6446L320.058 36.6387M320.058 36.6387C319.794 36.4219 319.758 36.0168 319.992 35.7486L320.058 36.6387Z" fill="white" stroke="#1A1A18"/>
<path d="M316.398 27.8201L316.23 27.9692V27.9723C315.299 28.8139 314.441 29.7076 313.649 30.6403L313.649 30.6408C313.449 30.8766 313.092 30.9102 312.842 30.7048C312.842 30.7048 312.842 30.7047 312.842 30.7047C312.842 30.7047 312.842 30.7047 312.842 30.7046L311.057 29.2355C311.057 29.2354 311.057 29.2354 311.057 29.2353C310.793 29.0169 310.759 28.6237 310.968 28.3765L310.968 28.3763C311.925 27.2428 312.968 26.1633 314.105 25.1521C327.086 13.6045 346.848 14.7837 358.409 27.7046L358.413 28.2504L358.417 28.8007L357.036 30.4545L357.036 30.4547C356.809 30.7276 356.393 30.7343 356.149 30.4519L356.138 30.4396L356.137 30.4381C356.136 30.4374 356.136 30.4368 356.135 30.4361C345.891 18.6144 328.067 17.4397 316.398 27.8201Z" fill="white" stroke="#1A1A18"/>
<path d="M308.755 18.9947L308.754 18.9948C307.269 20.3166 305.913 21.73 304.673 23.2134L304.672 23.2139C304.456 23.4738 304.093 23.5054 303.847 23.3029L302.064 21.8354C302.064 21.8354 302.064 21.8354 302.064 21.8354C301.8 21.6181 301.764 21.2233 301.974 20.9711L301.974 20.9709C303.337 19.3345 304.828 17.779 306.461 16.3258C323.85 0.855729 350.142 2.11667 366.048 18.8154C366.256 19.0348 366.269 19.3932 366.067 19.6358L364.58 21.4172L364.58 21.4175C364.356 21.6861 363.949 21.7017 363.694 21.4316C349.083 5.93446 324.799 4.72252 308.755 18.9947ZM306.129 15.9522C304.476 17.4228 302.968 18.9963 301.59 20.6509L306.129 15.9522Z" fill="white" stroke="#1A1A18"/>
<path d="M342.243 43.9318C343.367 47.6957 341.267 51.6615 337.567 52.7975C333.866 53.9335 329.948 51.8151 328.823 48.0512C327.698 44.2873 329.798 40.3215 333.499 39.1855C337.2 38.0495 341.118 40.1679 342.243 43.9318Z" fill="white" stroke="black"/>
</g>
<g clip-path="url(#clip1_670_1951)">
<path d="M59.7494 64.7088C73.418 51.0419 73.418 28.8834 59.7494 15.2165C46.0808 1.54951 23.9197 1.54951 10.2511 15.2165C-3.41747 28.8834 -3.41747 51.0419 10.2511 64.7088C23.9197 78.3758 46.0808 78.3758 59.7494 64.7088Z" fill="#72B6D3"/>
<path d="M58.926 63.8854C72.1397 50.6732 72.1397 29.2521 58.926 16.0399C45.7122 2.82769 24.2885 2.82769 11.0747 16.0399C-2.13908 29.2521 -2.13908 50.6732 11.0747 63.8854C24.2885 77.0976 45.7122 77.0976 58.926 63.8854Z" fill="#72B6D3"/>
<path d="M3.80947 38.6632C3.80342 38.6632 3.79616 38.6632 3.79012 38.6632C3.59299 38.6523 3.44181 38.4842 3.45149 38.287C3.52042 36.9579 3.67522 35.6228 3.91105 34.3191C3.94612 34.1256 4.13116 33.9962 4.32587 34.0312C4.52058 34.0663 4.64877 34.2526 4.6137 34.4473C4.38392 35.722 4.23275 37.0269 4.16502 38.3257C4.15535 38.5168 3.99692 38.6644 3.80826 38.6644L3.80947 38.6632Z" fill="white"/>
<path d="M7.09908 26.2656C7.04466 26.2656 6.99024 26.2535 6.93823 26.2269C6.76167 26.1374 6.69152 25.9234 6.77981 25.7468C12.1906 15.0306 23.0036 8.37378 35.0006 8.37378C36.9139 8.37378 38.8307 8.5467 40.6992 8.88649C40.8939 8.92156 41.0221 9.10778 40.9871 9.30247C40.952 9.49716 40.7657 9.62654 40.571 9.59027C38.7449 9.25773 36.8703 9.08964 35.0006 9.08964C23.2745 9.08964 12.7058 15.5965 7.41836 26.0697C7.35547 26.1942 7.2297 26.2668 7.09908 26.2668V26.2656Z" fill="white"/>
<path d="M55.6337 20.8048C66.6223 31.792 66.6223 49.6059 55.6337 60.5932C44.6452 71.5804 26.8291 71.5804 15.8406 60.5932C4.85197 49.6059 4.85197 31.792 15.8406 20.8048C26.8291 9.8175 44.6452 9.8175 55.6337 20.8048Z" fill="white" stroke="#1A1A18"/>
<path d="M45.8939 28.4368L49.6516 28.5265V53.6829L45.8939 53.6361V28.4368Z" fill="#72B6D3" stroke="#1A1A18"/>
<path d="M37.3884 41.3823L41.1812 41.4512V53.579L37.3884 53.5321V41.3823Z" fill="#72B6D3" stroke="#1A1A18"/>
<path d="M28.8163 25.5255L32.6453 25.6214V53.4737L28.8163 53.4257V25.5255Z" fill="#72B6D3" stroke="#1A1A18"/>
<path d="M20.1802 29.6129L24.0455 29.7022V53.3673L20.1802 53.3192V29.6129Z" fill="#72B6D3" stroke="#1A1A18"/>
</g>
<g clip-path="url(#clip2_670_1951)">
<path d="M208.749 134.701C222.418 121.034 222.418 98.8751 208.749 85.2082C195.081 71.5412 172.92 71.5412 159.251 85.2082C145.583 98.8751 145.583 121.034 159.251 134.701C172.92 148.367 195.081 148.367 208.749 134.701Z" fill="#72B6D3"/>
<path d="M207.926 133.877C221.14 120.665 221.14 99.2438 207.926 86.0316C194.712 72.8194 173.288 72.8194 160.075 86.0316C146.861 99.2438 146.861 120.665 160.075 133.877C173.288 147.089 194.712 147.089 207.926 133.877Z" fill="#72B6D3"/>
<path d="M152.809 108.655C152.803 108.655 152.796 108.655 152.79 108.655C152.593 108.644 152.442 108.476 152.451 108.279C152.52 106.95 152.675 105.615 152.911 104.311C152.946 104.116 153.131 103.988 153.326 104.023C153.521 104.058 153.649 104.244 153.614 104.439C153.384 105.714 153.233 107.019 153.165 108.317C153.155 108.509 152.997 108.656 152.808 108.656L152.809 108.655Z" fill="white"/>
<path d="M156.099 96.2573C156.045 96.2573 155.99 96.2452 155.938 96.2186C155.762 96.1291 155.692 95.9151 155.78 95.7385C161.191 85.0223 172.004 78.3655 184.001 78.3655C185.914 78.3655 187.831 78.5384 189.699 78.8782C189.894 78.9133 190.022 79.0995 189.987 79.2942C189.952 79.4889 189.766 79.6182 189.571 79.582C187.745 79.2494 185.87 79.0813 184.001 79.0813C172.275 79.0813 161.706 85.5882 156.418 96.0614C156.355 96.1859 156.23 96.2585 156.099 96.2585V96.2573Z" fill="white"/>
<path d="M204.634 90.7965C215.622 101.784 215.622 119.598 204.634 130.585C193.645 141.572 175.829 141.572 164.841 130.585C153.852 119.598 153.852 101.784 164.841 90.7965C175.829 79.8092 193.645 79.8092 204.634 90.7965Z" fill="white" stroke="#1A1A18"/>
<path d="M196.66 105.823C196.66 107.196 196.189 108.883 195.393 110.74C194.6 112.588 193.501 114.563 192.287 116.501C189.859 120.377 186.989 124.064 185.237 126.222C184.594 127.008 183.406 127.008 182.763 126.222C181.011 124.064 178.141 120.377 175.713 116.501C174.498 114.563 173.4 112.588 172.607 110.74C171.811 108.883 171.34 107.196 171.34 105.823C171.34 98.9587 177.003 93.3757 184 93.3757C190.997 93.3757 196.66 98.9587 196.66 105.823ZM187.452 102.415C186.535 101.512 185.293 101.007 184 101.007C182.707 101.007 181.464 101.512 180.547 102.415C179.63 103.317 179.113 104.543 179.113 105.823C179.113 107.103 179.63 108.328 180.547 109.231C181.464 110.133 182.707 110.638 184 110.638C185.293 110.638 186.535 110.133 187.452 109.231C188.37 108.328 188.887 107.103 188.887 105.823C188.887 104.543 188.37 103.317 187.452 102.415Z" fill="#72B6D3" stroke="#1A1A18"/>
</g>
<g clip-path="url(#clip3_670_1951)">
<path d="M505.749 134.701C519.418 121.034 519.418 98.8751 505.749 85.2082C492.081 71.5412 469.92 71.5412 456.251 85.2082C442.583 98.8751 442.583 121.034 456.251 134.701C469.92 148.367 492.081 148.367 505.749 134.701Z" fill="#72B6D3"/>
<path d="M504.926 133.877C518.14 120.665 518.14 99.2438 504.926 86.0316C491.712 72.8194 470.288 72.8194 457.075 86.0316C443.861 99.2438 443.861 120.665 457.075 133.877C470.288 147.089 491.712 147.089 504.926 133.877Z" fill="#72B6D3"/>
<path d="M449.809 108.655C449.803 108.655 449.796 108.655 449.79 108.655C449.593 108.644 449.442 108.476 449.451 108.279C449.52 106.95 449.675 105.615 449.911 104.311C449.946 104.117 450.131 103.988 450.326 104.023C450.521 104.058 450.649 104.244 450.614 104.438C450.384 105.713 450.233 107.017 450.165 108.316C450.155 108.507 449.997 108.655 449.808 108.655H449.809Z" fill="white"/>
<path d="M453.099 96.2573C453.045 96.2573 452.99 96.2452 452.938 96.2186C452.762 96.1291 452.692 95.9151 452.78 95.7385C458.191 85.0223 469.004 78.3655 481.001 78.3655C482.914 78.3655 484.831 78.5384 486.699 78.8782C486.894 78.9133 487.022 79.0995 486.987 79.2942C486.952 79.4889 486.766 79.6182 486.571 79.582C484.745 79.2494 482.87 79.0813 481.001 79.0813C469.275 79.0813 458.706 85.5882 453.418 96.0614C453.355 96.1859 453.23 96.2585 453.099 96.2585V96.2573Z" fill="white"/>
<path d="M501.634 90.7965C512.622 101.784 512.622 119.598 501.634 130.585C490.645 141.572 472.829 141.572 461.841 130.585C450.852 119.598 450.852 101.784 461.841 90.7965C472.829 79.8092 490.645 79.8092 501.634 90.7965Z" fill="white" stroke="#1A1A18"/>
<path d="M470.357 116.772L460.45 117.092C460.677 112.536 462.198 108.329 464.632 104.787L472.388 110.384C471.23 112.257 470.501 114.389 470.357 116.772Z" fill="#72B6D3" stroke="#1A1A18"/>
<path d="M473.741 108.533L466.028 102.94C468.721 99.7202 472.193 97.263 476.065 95.8839L478.608 104.965C476.746 105.761 475.081 106.99 473.741 108.533Z" fill="#72B6D3" stroke="#1A1A18"/>
<path d="M483.536 103.947H483.535C482.574 103.947 481.631 104.059 480.718 104.272L478.2 95.2432C480.015 94.7995 481.894 94.5903 483.806 94.6433L483.806 94.6433C485.825 94.6988 487.748 95.0434 489.543 95.6331L486.673 104.367C485.68 104.095 484.628 103.948 483.536 103.947Z" fill="#72B6D3" stroke="#1A1A18"/>
<path d="M491.545 96.4138C494.781 97.8836 497.523 100.194 499.55 103.06L492.623 108.29C491.563 106.966 490.226 105.882 488.689 105.13L491.545 96.4138Z" fill="#72B6D3" stroke="#1A1A18"/>
<path d="M500.689 104.878C502.457 108.021 503.452 111.699 503.422 115.705L495.297 115.967C495.276 113.77 494.741 111.814 493.811 110.094L500.689 104.878Z" fill="#72B6D3" stroke="#1A1A18"/>
<path d="M485.117 115.62L482.744 113.378L487.521 110.355L485.117 115.62Z" fill="#72B6D3" stroke="#1A1A18"/>
<path d="M483.12 118.324L483.12 118.324C484.566 118.27 485.797 117.003 485.84 115.471L483.12 118.324ZM483.12 118.324C481.684 118.378 480.522 117.217 480.564 115.68C480.607 114.122 481.869 112.855 483.328 112.825L483.328 112.825M483.12 118.324L483.328 112.825M483.328 112.825C484.748 112.797 485.881 113.958 485.84 115.471L483.328 112.825Z" fill="#72B6D3" stroke="#1A1A18"/>
<path d="M483.174 117.549C482.119 117.585 481.282 116.724 481.313 115.63C481.343 114.535 482.229 113.624 483.283 113.6C484.331 113.575 485.155 114.436 485.125 115.52C485.094 116.603 484.221 117.513 483.173 117.549H483.174ZM483.272 113.985C482.424 114.005 481.712 114.738 481.687 115.619C481.663 116.498 482.336 117.191 483.185 117.163C484.029 117.135 484.733 116.402 484.757 115.529C484.781 114.656 484.117 113.963 483.273 113.984L483.272 113.985Z" fill="#72B6D3"/>
</g>
<g clip-path="url(#clip4_670_1951)">
<path d="M653.749 64.7088C667.418 51.0419 667.418 28.8834 653.749 15.2165C640.081 1.54951 617.92 1.54951 604.251 15.2165C590.583 28.8834 590.583 51.0419 604.251 64.7088C617.92 78.3758 640.081 78.3758 653.749 64.7088Z" fill="#72B6D3"/>
<path d="M652.926 63.8854C666.14 50.6732 666.14 29.2521 652.926 16.0399C639.712 2.82769 618.288 2.82769 605.075 16.0399C591.861 29.2521 591.861 50.6732 605.075 63.8854C618.288 77.0976 639.712 77.0976 652.926 63.8854Z" fill="#72B6D3"/>
<path d="M597.81 38.6632C597.804 38.6632 597.796 38.6632 597.79 38.6632C597.593 38.6523 597.442 38.4842 597.452 38.2871C597.521 36.958 597.675 35.6228 597.911 34.3191C597.946 34.1244 598.131 33.9962 598.326 34.0313C598.521 34.0664 598.649 34.2526 598.614 34.4461C598.384 35.7208 598.233 37.0257 598.165 38.3246C598.155 38.5157 597.997 38.6632 597.808 38.6632H597.81Z" fill="white"/>
<path d="M601.099 26.2656C601.045 26.2656 600.99 26.2535 600.938 26.2269C600.762 26.1374 600.692 25.9234 600.78 25.7468C606.191 15.0306 617.004 8.37378 629.001 8.37378C630.914 8.37378 632.831 8.5467 634.699 8.88649C634.894 8.92156 635.022 9.10778 634.987 9.30247C634.952 9.49716 634.766 9.62654 634.571 9.59027C632.745 9.25773 630.87 9.08964 629.001 9.08964C617.275 9.08964 606.706 15.5965 601.418 26.0697C601.355 26.1942 601.23 26.2668 601.099 26.2668V26.2656Z" fill="white"/>
<path d="M649.634 20.8048C660.622 31.792 660.622 49.6059 649.634 60.5932C638.645 71.5804 620.829 71.5804 609.841 60.5932C598.852 49.6059 598.852 31.792 609.841 20.8048C620.829 9.8175 638.645 9.8175 649.634 20.8048Z" fill="white" stroke="#1A1A18"/>
<path d="M635.421 30.065L636.394 30.9628L631.764 35.9844L630.79 35.0866L635.421 30.065Z" fill="#72B6D3" stroke="#1A1A18"/>
<path d="M621.987 46.5761L621.013 45.6783L625.644 40.6569L626.618 41.5547L621.987 46.5761Z" fill="#72B6D3" stroke="#1A1A18"/>
<path d="M646.243 21.2382L649.162 23.9296L646.471 26.8484L643.551 24.1569L646.243 21.2382Z" fill="#72B6D3" stroke="#1A1A18"/>
<path d="M641.995 17.3201L644.914 20.0115L642.222 22.9303L639.303 20.2389L641.995 17.3201Z" fill="#72B6D3" stroke="#1A1A18"/>
<path d="M642.122 25.7072L645.041 28.3986L642.349 31.3174L639.43 28.6259L642.122 25.7072Z" fill="#72B6D3" stroke="#1A1A18"/>
<path d="M637.874 21.7891L640.793 24.4805L638.101 27.3993L635.182 24.7079L637.874 21.7891Z" fill="#72B6D3" stroke="#1A1A18"/>
<path d="M637.999 30.1754L640.918 32.8669L638.226 35.7857L635.307 33.0942L637.999 30.1754Z" fill="#72B6D3" stroke="#1A1A18"/>
<path d="M633.751 26.2573L636.67 28.9488L633.978 31.8676L631.059 29.1761L633.751 26.2573Z" fill="#72B6D3" stroke="#1A1A18"/>
<path d="M624.023 45.3276L626.942 48.0191L624.25 50.9379L621.331 48.2464L624.023 45.3276Z" fill="#72B6D3" stroke="#1A1A18"/>
<path d="M619.773 41.4095L622.693 44.101L620.001 47.0198L617.082 44.3283L619.773 41.4095Z" fill="#72B6D3" stroke="#1A1A18"/>
<path d="M619.901 49.7966L622.82 52.4881L620.128 55.4069L617.209 52.7154L619.901 49.7966Z" fill="#72B6D3" stroke="#1A1A18"/>
<path d="M615.652 45.8785L618.571 48.57L615.879 51.4888L612.96 48.7973L615.652 45.8785Z" fill="#72B6D3" stroke="#1A1A18"/>
<path d="M615.779 54.2649L618.698 56.9564L616.006 59.8751L613.087 57.1837L615.779 54.2649Z" fill="#72B6D3" stroke="#1A1A18"/>
<path d="M611.529 50.3468L614.448 53.0383L611.757 55.9571L608.838 53.2656L611.529 50.3468Z" fill="#72B6D3" stroke="#1A1A18"/>
<path d="M622.124 25.4325L638.197 40.2519L631.394 47.6286L615.321 32.8093L622.124 25.4325Z" fill="#72B6D3" stroke="#1A1A18"/>
<path d="M639.257 47.9526L644.087 52.4058L643.984 52.518L639.154 48.0648L639.257 47.9526Z" fill="#72B6D3" stroke="#1A1A18"/>
<path d="M636.955 54.4914L645.489 45.2391C642.925 43.2219 639.199 43.4857 636.948 45.9245L636.955 54.4914ZM636.955 54.4914C634.737 52.0983 634.699 48.3634 636.948 45.9246L636.955 54.4914Z" fill="#72B6D3" stroke="#1A1A18"/>
<path d="M643.896 53.7784C643.464 53.3804 643.436 52.7062 643.835 52.2742C644.233 51.8424 644.907 51.8151 645.339 52.2134C645.771 52.6114 645.798 53.2856 645.4 53.7176C645.002 54.1494 644.328 54.1767 643.896 53.7784Z" fill="#72B6D3" stroke="#1A1A18"/>
</g>
<defs>
<clipPath id="clip0_670_1951">
<rect width="70" height="49.994" fill="white" transform="translate(297 4.96619)"/>
</clipPath>
<clipPath id="clip1_670_1951">
<rect width="70" height="69.9916" fill="white" transform="translate(0 4.96619)"/>
</clipPath>
<clipPath id="clip2_670_1951">
<rect width="70" height="69.9916" fill="white" transform="translate(149 74.9579)"/>
</clipPath>
<clipPath id="clip3_670_1951">
<rect width="70" height="69.9916" fill="white" transform="translate(446 74.9579)"/>
</clipPath>
<clipPath id="clip4_670_1951">
<rect width="70" height="69.9916" fill="white" transform="translate(594 4.96619)"/>
</clipPath>
</defs>
</svg>
