<svg width="1279" height="448" viewBox="0 0 1279 448" fill="none" xmlns="http://www.w3.org/2000/svg">
<path d="M1137.72 66C1033.58 95.4825 1006.27 162.863 1025.94 247.185" stroke="#1A1A18" stroke-width="3" stroke-linecap="round" stroke-dasharray="10 10"/>
<path d="M916.779 437.793C1020.79 407.832 1047.79 340.327 1027.73 256.096" stroke="#1A1A18" stroke-width="3" stroke-linecap="round" stroke-dasharray="10 10"/>
<path d="M727.935 324.671C754.335 429.639 820.881 458.924 905.747 441.745" stroke="#1A1A18" stroke-width="3" stroke-linecap="round" stroke-dasharray="10 10"/>
<path d="M726.124 313.331C677.623 216.57 606.315 202.387 527.182 237.534" stroke="#1A1A18" stroke-width="3" stroke-linecap="round" stroke-dasharray="10 10"/>
<path d="M305.131 225.069C378.101 305.01 450.579 299.282 517.185 243.954" stroke="#1A1A18" stroke-width="3" stroke-linecap="round" stroke-dasharray="10 10"/>
<path d="M299.332 211.921C259.364 111.334 189.547 91.0488 107.675 119.233" stroke="#1A1A18" stroke-width="3" stroke-linecap="round" stroke-dasharray="10 10"/>
<g clip-path="url(#clip0_764_448)">
<path d="M1257.03 127.976C1286.32 98.6995 1286.32 51.2334 1257.03 21.9571C1227.74 -7.3191 1180.26 -7.3191 1150.97 21.9571C1121.68 51.2334 1121.68 98.6995 1150.97 127.976C1180.26 157.252 1227.74 157.252 1257.03 127.976Z" fill="#72B6D3"/>
<path d="M1255.27 126.212C1283.59 97.9098 1283.59 52.0231 1255.27 23.721C1226.95 -4.58109 1181.05 -4.58108 1152.73 23.721C1124.42 52.0231 1124.42 97.9098 1152.73 126.212C1181.05 154.514 1226.95 154.514 1255.27 126.212Z" fill="#72B6D3"/>
<path d="M1137.16 72.1818C1137.15 72.1818 1137.13 72.1818 1137.12 72.1818C1136.7 72.1585 1136.38 71.7985 1136.4 71.3762C1136.54 68.5295 1136.88 65.6698 1137.38 62.8774C1137.46 62.4604 1137.85 62.1858 1138.27 62.2609C1138.69 62.336 1138.96 62.7349 1138.89 63.1494C1138.39 65.8796 1138.07 68.6745 1137.93 71.4565C1137.9 71.8658 1137.56 72.1818 1137.16 72.1818H1137.16Z" fill="white"/>
<path d="M1144.21 45.6259C1144.1 45.6259 1143.98 45.6 1143.87 45.543C1143.49 45.3513 1143.34 44.8928 1143.53 44.5146C1155.12 21.5592 1178.29 7.2995 1204 7.2995C1208.1 7.2995 1212.21 7.66991 1216.21 8.3978C1216.63 8.47291 1216.9 8.87182 1216.83 9.28887C1216.75 9.70591 1216.36 9.98307 1215.94 9.90536C1212.02 9.19302 1208.01 8.83297 1204 8.83297C1178.87 8.83297 1156.23 22.7715 1144.9 45.2063C1144.76 45.4731 1144.49 45.6285 1144.21 45.6285V45.6259Z" fill="white"/>
<path d="M1248.62 33.5243C1272.39 57.2834 1272.39 95.8045 1248.62 119.564C1224.85 143.323 1186.31 143.323 1162.54 119.564C1138.77 95.8045 1138.77 57.2834 1162.54 33.5243C1186.31 9.76527 1224.85 9.76527 1248.62 33.5243Z" fill="white" stroke="#1A1A18"/>
<path d="M1217.73 52.9576L1220.65 55.6549L1209.95 67.2501L1207.03 64.5528L1217.73 52.9576Z" fill="#72B6D3" stroke="#1A1A18"/>
<path d="M1189 89.9401L1186.08 87.2429L1196.78 75.6477L1199.7 78.3449L1189 89.9401Z" fill="#72B6D3" stroke="#1A1A18"/>
<path d="M1240.92 34.0499L1248.01 40.5893L1241.47 47.6809L1234.38 41.1415L1240.92 34.0499Z" fill="#72B6D3" stroke="#1A1A18"/>
<path d="M1231.81 25.6568L1238.91 32.1962L1232.37 39.2878L1225.27 32.7484L1231.81 25.6568Z" fill="#72B6D3" stroke="#1A1A18"/>
<path d="M1232.09 43.623L1239.18 50.1624L1232.64 57.254L1225.54 50.7146L1232.09 43.623Z" fill="#72B6D3" stroke="#1A1A18"/>
<path d="M1222.98 35.23L1230.08 41.7694L1223.53 48.8609L1216.44 42.3216L1222.98 35.23Z" fill="#72B6D3" stroke="#1A1A18"/>
<path d="M1223.25 53.1945L1230.35 59.7338L1223.8 66.8254L1216.71 60.286L1223.25 53.1945Z" fill="#72B6D3" stroke="#1A1A18"/>
<path d="M1214.15 44.8014L1221.24 51.3408L1214.7 58.4324L1207.61 51.893L1214.15 44.8014Z" fill="#72B6D3" stroke="#1A1A18"/>
<path d="M1193.3 85.6525L1200.4 92.1918L1193.85 99.2834L1186.76 92.7441L1193.3 85.6525Z" fill="#72B6D3" stroke="#1A1A18"/>
<path d="M1184.2 77.2594L1191.29 83.7988L1184.75 90.8904L1177.65 84.351L1184.2 77.2594Z" fill="#72B6D3" stroke="#1A1A18"/>
<path d="M1184.47 95.2257L1191.57 101.765L1185.02 108.857L1177.93 102.317L1184.47 95.2257Z" fill="#72B6D3" stroke="#1A1A18"/>
<path d="M1175.36 86.8325L1182.46 93.3719L1175.92 100.463L1168.82 93.9241L1175.36 86.8325Z" fill="#72B6D3" stroke="#1A1A18"/>
<path d="M1175.64 104.797L1182.73 111.336L1176.19 118.428L1169.09 111.889L1175.64 104.797Z" fill="#72B6D3" stroke="#1A1A18"/>
<path d="M1166.53 96.4041L1173.63 102.943L1167.08 110.035L1159.99 103.496L1166.53 96.4041Z" fill="#72B6D3" stroke="#1A1A18"/>
<path d="M1189.23 43.0342L1224.52 75.5534L1209.16 92.1949L1173.88 59.6758L1189.23 43.0342Z" fill="#72B6D3" stroke="#1A1A18"/>
<path d="M1225.95 91.2759L1237.14 101.589L1236.14 102.669L1224.95 92.3557L1225.95 91.2759Z" fill="#72B6D3" stroke="#1A1A18"/>
<path d="M1221.06 106.92C1215.68 101.605 1215.45 92.9486 1220.61 87.3506L1220.61 87.3505C1225.78 81.7524 1234.43 81.2871 1240.16 86.2124L1221.06 106.92Z" fill="#72B6D3" stroke="#1A1A18"/>
<path d="M1235.53 104.981C1234.37 103.914 1234.3 102.109 1235.37 100.952C1236.44 99.7954 1238.24 99.7225 1239.4 100.789C1240.56 101.856 1240.63 103.661 1239.56 104.818C1238.5 105.975 1236.69 106.047 1235.53 104.981Z" fill="#72B6D3" stroke="#1A1A18"/>
</g>
<g clip-path="url(#clip1_764_448)">
<path d="M128.035 228.976C157.324 199.7 157.324 152.233 128.035 122.957C98.7448 93.6809 51.2566 93.6809 21.9668 122.957C-7.32304 152.233 -7.32304 199.7 21.9668 228.976C51.2566 258.252 98.7448 258.252 128.035 228.976Z" fill="#72B6D3"/>
<path d="M126.27 227.212C154.585 198.91 154.585 153.023 126.27 124.721C97.9546 96.4189 52.0466 96.4189 23.7314 124.721C-4.58383 153.023 -4.58383 198.91 23.7314 227.212C52.0466 255.514 97.9546 255.514 126.27 227.212Z" fill="#72B6D3"/>
<path d="M8.1633 173.182C8.15034 173.182 8.13479 173.182 8.12183 173.182C7.69941 173.159 7.37547 172.799 7.39621 172.376C7.54392 169.53 7.87564 166.67 8.38098 163.877C8.45614 163.463 8.85264 163.186 9.26988 163.261C9.68711 163.336 9.96181 163.735 9.88666 164.152C9.39427 166.882 9.07033 169.677 8.9252 172.459C8.90447 172.868 8.56498 173.184 8.16071 173.184L8.1633 173.182Z" fill="white"/>
<path d="M15.2124 146.626C15.0957 146.626 14.9791 146.6 14.8677 146.543C14.4893 146.351 14.339 145.893 14.5282 145.515C26.1227 122.559 49.2935 108.3 75.0014 108.3C79.1012 108.3 83.2088 108.67 87.2127 109.398C87.6299 109.473 87.9046 109.872 87.8294 110.289C87.7543 110.706 87.3552 110.983 86.938 110.905C83.0248 110.193 79.0079 109.833 75.0014 109.833C49.874 109.833 27.2267 123.772 15.8965 146.206C15.7618 146.473 15.4922 146.629 15.2124 146.629V146.626Z" fill="white"/>
<path d="M119.619 134.524C143.389 158.283 143.389 196.804 119.619 220.564C95.8491 244.323 57.3102 244.323 33.5401 220.564C9.76996 196.804 9.76996 158.283 33.5401 134.524C57.3102 110.765 95.8491 110.765 119.619 134.524Z" fill="white" stroke="#1A1A18"/>
<path d="M97.7729 150.692L106.968 150.912V205.935L97.7729 205.821V150.692Z" fill="#72B6D3" stroke="#1A1A18"/>
<path d="M79.5466 178.426L88.8168 178.594V205.713L79.5466 205.598V178.426Z" fill="#72B6D3" stroke="#1A1A18"/>
<path d="M61.178 144.455L70.5259 144.689V205.487L61.178 205.37V144.455Z" fill="#72B6D3" stroke="#1A1A18"/>
<path d="M42.6719 153.212L52.0976 153.43V205.259L42.6719 205.142V153.212Z" fill="#72B6D3" stroke="#1A1A18"/>
</g>
<defs>
<clipPath id="clip0_764_448">
<rect width="150" height="149.93" fill="white" transform="translate(1129)"/>
</clipPath>
<clipPath id="clip1_764_448">
<rect width="150" height="149.93" fill="white" transform="translate(0 101)"/>
</clipPath>
</defs>
</svg>
