<svg xmlns="http://www.w3.org/2000/svg" width="40" height="40">
	<path fill="currentColor" d="M20.333 3C13 3 7 9 7 16.333 7 25.333 18.667 35.5 19.167 36c.333.167.833.333 1.166.333.334 0 .834-.166 1.167-.333.5-.5 12.167-10.667 12.167-19.667C33.667 9 27.667 3 20.333 3Zm0 29.5c-3.5-3.333-10-10.5-10-16.167 0-5.5 4.5-10 10-10s10 4.5 10 10-6.5 12.834-10 16.167Zm0-22.833c-3.666 0-6.666 3-6.666 6.666 0 3.667 3 6.667 6.666 6.667C24 23 27 20 27 16.333c0-3.666-3-6.666-6.667-6.666Zm0 10A3.343 3.343 0 0 1 17 16.333C17 14.5 18.5 13 20.333 13c1.834 0 3.334 1.5 3.334 3.333 0 1.834-1.5 3.334-3.334 3.334Z" />
</svg>
