<svg width="145" height="60" viewBox="0 0 145 60" fill="none" xmlns="http://www.w3.org/2000/svg">
<ellipse cx="72.5" cy="30" rx="72.5" ry="30" fill="#E0DFEB"/>
<path d="M13.0959 33.6773C13.0076 33.6064 15.6097 30.1838 16.5622 28.9806C16.8273 28.658 17.0794 28.2999 17.3576 27.9741C17.5658 27.7625 17.7481 27.5275 17.9009 27.2741C18.0639 26.8961 18.1421 26.4879 18.13 26.0773C18.1726 25.529 18.3166 24.9935 18.4017 24.4644C18.6406 22.9386 19.5669 21.0902 19.7797 20.6773C20.5858 19.1465 21.6208 17.7438 22.8499 16.5161C24.6922 14.5784 26.8548 12.963 29.2456 11.7386C31.704 10.4377 34.4039 9.64003 37.183 9.39347C37.183 9.39347 45.4313 8.69992 52.0594 14.158C54.1748 15.9103 55.9694 18.0074 57.3651 20.358C57.4993 20.5838 57.4895 20.6064 57.6925 21.0031C57.8856 21.3257 58.0394 21.5644 57.9772 21.6257C57.915 21.687 57.915 21.6257 57.8725 21.6257C57.8392 21.6224 57.8063 21.616 57.7743 21.6064C57.0536 21.39 56.3202 21.2176 55.578 21.0902L54.1313 20.7677C50.9752 20.1513 47.7547 19.9162 44.541 20.0677C39.9231 20.2919 35.3597 21.1518 30.9836 22.6225C22.7059 25.458 17.5638 29.7548 17.0892 30.158C16.6146 30.5612 13.7604 33.1128 13.5378 33.329C13.5015 33.3664 13.4633 33.4019 13.4233 33.4354C13.3742 33.4709 13.1189 33.6967 13.0959 33.6773Z" fill="#0D6197"/>
<path d="M41.7388 22.8066C45.2802 21.5142 49.1081 21.1801 52.8249 21.8388L41.7388 22.8066Z" fill="#0D6197"/>
<path d="M20.1426 38.0839C21.6709 35.0717 23.8032 32.3962 26.4106 30.2194C28.4971 28.5258 30.8253 27.1443 33.3202 26.1194C34.4855 25.6065 36.2366 24.9129 36.3184 25.071C36.4264 25.2839 33.4642 26.7355 29.9391 29.1904C28.1402 30.4429 26.4187 31.8002 24.7839 33.2549" fill="#0D6197"/>
<path d="M26.2114 45.6774C27.0657 49.9742 41.0289 53.0323 49.7092 47.9806C51.2544 47.0518 52.6761 45.9368 53.9414 44.6613C55.1066 43.5065 57.9935 40.5806 59.401 35.9516C59.7681 34.7232 60.0201 33.4641 60.1538 32.1903C60.4811 29.4258 60.6677 27.9226 60.0687 26.1258C59.8298 25.4065 59.6072 25.0484 59.7905 24.8355C60.4713 24.0387 66.0454 26.6387 66.3368 26.771C66.4153 26.8065 66.6641 26.9258 66.7132 26.8645C66.7623 26.8032 66.4317 26.4194 66.3171 26.2968C64.3532 24.2226 61.3354 23.3935 61.3354 23.3935C59.9519 23.0043 58.5191 22.8109 57.0803 22.8194C53.1264 22.8677 45.3265 24.371 37.471 30.1226C34.7621 32.0592 32.3502 34.37 30.3093 36.9839C28.6728 39.1258 26.9675 41.2194 26.3816 44.2323C26.2081 44.9484 26.1394 45.3129 26.2114 45.6774Z" fill="#061B29"/>
<path d="M131.433 28.0269L129.729 33.4429L131.942 41.6129H127.901L126.592 35.6953V41.6129H122.395V25.0374H126.592V31.9993L127.901 28.0269H131.433Z" fill="#061B29"/>
<path d="M119.011 33.156H115.053V31.5896C115.053 31.0436 115.008 30.675 114.918 30.4839C114.828 30.2859 114.662 30.187 114.419 30.187C114.177 30.187 114.014 30.2723 113.931 30.4429C113.848 30.6136 113.806 30.9958 113.806 31.5896V37.9987C113.806 38.4833 113.869 38.8485 113.993 39.0942C114.118 39.3331 114.301 39.4525 114.544 39.4525C114.828 39.4525 115.018 39.3262 115.115 39.0737C115.219 38.8212 115.271 38.3434 115.271 37.6404V36.0227H119.011C119.004 37.108 118.962 37.9236 118.886 38.4696C118.817 39.0089 118.585 39.5651 118.19 40.1385C117.802 40.705 117.293 41.135 116.663 41.4285C116.033 41.7151 115.254 41.8585 114.326 41.8585C113.141 41.8585 112.203 41.6605 111.51 41.2647C110.818 40.862 110.326 40.3023 110.035 39.5856C109.751 38.8621 109.609 37.8383 109.609 36.5142V32.6544C109.609 31.5009 109.727 30.6306 109.963 30.0436C110.198 29.4567 110.7 28.9345 111.469 28.4772C112.238 28.0131 113.173 27.781 114.274 27.781C115.368 27.781 116.303 28.0097 117.079 28.467C117.854 28.9243 118.37 29.501 118.626 30.1972C118.883 30.8934 119.011 31.8797 119.011 33.156Z" fill="#061B29"/>
<path d="M100.636 33.2891H96.6987V32.3779C96.6987 31.3268 96.8199 30.518 97.0623 29.9515C97.3116 29.3782 97.8068 28.8731 98.5479 28.4362C99.2889 27.9994 100.252 27.781 101.436 27.781C102.856 27.781 103.926 28.0301 104.646 28.5284C105.366 29.0198 105.799 29.6273 105.944 30.3508C106.09 31.0675 106.163 32.5486 106.163 34.7941V41.6128H102.08V40.4047C101.824 40.8893 101.491 41.2544 101.083 41.5001C100.681 41.739 100.2 41.8585 99.6386 41.8585C98.9045 41.8585 98.2293 41.6571 97.6129 41.2544C97.0035 40.8449 96.6987 39.9542 96.6987 38.5823V37.4663C96.6987 36.4493 96.8615 35.7565 97.187 35.388C97.5125 35.0194 98.3193 34.5894 99.6075 34.0979C100.986 33.5656 101.723 33.2072 101.82 33.0229C101.917 32.8387 101.966 32.4633 101.966 31.8967C101.966 31.1869 101.91 30.7262 101.799 30.5146C101.696 30.2962 101.519 30.187 101.27 30.187C100.986 30.187 100.809 30.2791 100.74 30.4634C100.671 30.6409 100.636 31.1084 100.636 31.866V33.2891ZM101.966 35.1525C101.294 35.6371 100.903 36.0432 100.792 36.3708C100.688 36.6984 100.636 37.1694 100.636 37.7837C100.636 38.4867 100.681 38.9406 100.771 39.1454C100.868 39.3501 101.055 39.4525 101.332 39.4525C101.595 39.4525 101.765 39.374 101.841 39.217C101.924 39.0532 101.966 38.63 101.966 37.9475V35.1525Z" fill="#061B29"/>
<path d="M91.3297 28.0267L91.1635 29.8082C91.773 28.5318 92.656 27.8561 93.8125 27.781V32.5622C93.0438 32.5622 92.4794 32.6646 92.1192 32.8694C91.7591 33.0741 91.5375 33.3608 91.4544 33.7294C91.3713 34.0911 91.3297 34.9307 91.3297 36.248V41.6128H87.1328V28.0267H91.3297Z" fill="#061B29"/>
<path d="M84.133 25.0374V28.3545H81.5359V41.6129H77.1624V28.3545H74.5757V25.0374H84.133Z" fill="#061B29"/>
<path d="M71.5646 28.0269V41.6129H67.295L67.3677 40.4867C67.0769 40.944 66.7167 41.2887 66.2873 41.5207C65.8649 41.746 65.3766 41.8586 64.8226 41.8586C64.1924 41.8586 63.6695 41.7494 63.2539 41.531C62.8384 41.3126 62.5302 41.0225 62.3294 40.6607C62.1355 40.299 62.0143 39.9236 61.9658 39.5345C61.9173 39.1387 61.8931 38.3572 61.8931 37.19V28.0269H66.09V37.2719C66.09 38.3299 66.1211 38.9578 66.1835 39.1557C66.2527 39.3537 66.4328 39.4526 66.7237 39.4526C67.0353 39.4526 67.2188 39.3503 67.2742 39.1455C67.3366 38.9407 67.3677 38.2821 67.3677 37.1695V28.0269H71.5646Z" fill="#061B29"/>
</svg>
