<svg width="96" height="60" viewBox="0 0 96 60" fill="none" xmlns="http://www.w3.org/2000/svg">
<ellipse cx="48" cy="30" rx="48" ry="30" fill="#E0DFEB"/>
<path d="M21.0022 33.3124C20.9138 33.2414 23.516 29.8188 24.4684 28.6156C24.7336 28.293 24.9856 27.9349 25.2638 27.6091C25.472 27.3975 25.6544 27.1625 25.8072 26.9091C25.9702 26.5311 26.0484 26.1229 26.0363 25.7124C26.0788 25.164 26.2229 24.6285 26.308 24.0994C26.5469 22.5736 27.4732 20.7253 27.6859 20.3124C28.4921 18.7815 29.527 17.3788 30.7562 16.1511C32.5984 14.2134 34.761 12.598 37.1519 11.3736C39.6102 10.0727 42.3101 9.27504 45.0892 9.02848C45.0892 9.02848 53.3375 8.33493 59.9656 13.793C62.081 15.5453 63.8757 17.6424 65.2714 19.993C65.4056 20.2188 65.3958 20.2414 65.5987 20.6382C65.7918 20.9607 65.9457 21.1995 65.8835 21.2607C65.8213 21.322 65.8213 21.2607 65.7787 21.2607C65.7454 21.2575 65.7125 21.251 65.6805 21.2414C64.9599 21.025 64.2264 20.8527 63.4843 20.7253L62.0375 20.4027C58.8815 19.7863 55.661 19.5512 52.4472 19.7027C47.8293 19.9269 43.266 20.7868 38.8899 22.2575C30.6121 25.093 25.47 29.3898 24.9954 29.793C24.5208 30.1962 21.6666 32.7478 21.4441 32.964C21.4078 33.0014 21.3695 33.0369 21.3295 33.0704C21.2804 33.1059 21.0251 33.3317 21.0022 33.3124Z" fill="#0D6197"/>
<path d="M49.645 22.4416C53.1864 21.1493 57.0144 20.8151 60.7312 21.4738L49.645 22.4416Z" fill="#0D6197"/>
<path d="M28.0488 37.7189C29.5771 34.7067 31.7095 32.0312 34.3169 29.8544C36.4033 28.1608 38.7315 26.7793 41.2265 25.7544C42.3917 25.2415 44.1428 24.5479 44.2247 24.706C44.3327 24.9189 41.3705 26.3705 37.8453 28.8254C36.0464 30.0779 34.3249 31.4352 32.6901 32.8899" fill="#0D6197"/>
<path d="M34.1176 45.3124C34.9719 49.6092 48.9351 52.6673 57.6155 47.6157C59.1607 46.6868 60.5824 45.5718 61.8476 44.2963C63.0129 43.1415 65.8998 40.2157 67.3072 35.5866C67.6743 34.3582 67.9263 33.0991 68.06 31.8253C68.3874 29.0608 68.5739 27.5576 67.9749 25.7608C67.736 25.0415 67.5134 24.6834 67.6967 24.4705C68.3775 23.6737 73.9517 26.2737 74.243 26.406C74.3216 26.4415 74.5703 26.5608 74.6194 26.4995C74.6685 26.4382 74.3379 26.0544 74.2234 25.9318C72.2595 23.8576 69.2417 23.0286 69.2417 23.0286C67.8581 22.6393 66.4254 22.4459 64.9866 22.4544C61.0326 22.5028 53.2327 24.006 45.3772 29.7576C42.6684 31.6942 40.2564 34.005 38.2156 36.6189C36.579 38.7608 34.8737 40.8544 34.2878 43.8673C34.1143 44.5834 34.0456 44.9479 34.1176 45.3124Z" fill="#061B29"/>
</svg>
