<svg xmlns="http://www.w3.org/2000/svg" width="40" height="40" stroke="none">
	<path fill="currentColor" d="M33.25 35c-3.472 0-6.903-.757-10.292-2.27-3.389-1.515-6.472-3.66-9.25-6.438-2.777-2.778-4.923-5.861-6.437-9.25C5.757 13.652 5 10.222 5 6.75c0-.5.167-.917.5-1.25.333-.333.75-.5 1.25-.5h6.75c.389 0 .736.132 1.042.396.305.264.486.576.541.937l1.084 5.834c.055.444.041.82-.042 1.125-.083.305-.236.57-.458.791l-4.042 4.084a20.16 20.16 0 0 0 1.98 2.979 29.298 29.298 0 0 0 2.52 2.77c.861.862 1.764 1.66 2.708 2.396.945.737 1.945 1.41 3 2.021l3.917-3.916c.25-.25.576-.438.98-.563.402-.125.798-.16 1.187-.104l5.75 1.167c.389.11.708.312.958.604.25.291.375.618.375.979v6.75c0 .5-.167.917-.5 1.25-.333.333-.75.5-1.25.5ZM10.042 15l2.75-2.75-.709-3.917H8.375c.139 1.14.333 2.264.583 3.375A18.25 18.25 0 0 0 10.042 15Zm14.916 14.917c1.084.472 2.188.847 3.313 1.125 1.125.277 2.257.458 3.396.541v-3.666l-3.917-.792-2.792 2.792Z" />
</svg>
