
<svg aria-hidden="true" style="position:absolute;width:0;height:0;overflow:hidden" xmlns="http://www.w3.org/2000/svg">
  <defs>
    <linearGradient id="paint0_linear_63_139" x1="14.5" y1="-4.47619" x2="14.5" y2="71.1561" gradientUnits="userSpaceOnUse">
<stop stop-color="#72B6D3"/>
<stop offset="1" stop-color="#004572"/>
</linearGradient>
  </defs>
    <symbol id="icon-1" viewBox="0 0 13 32" >
      <path d="M6.233 32V.365h6.03V32h-6.03zM.023 5.675V.365h11.79v5.31H.023z"/>
    </symbol>
    <symbol id="icon-2" viewBox="0 0 23 32">
      <path d="m.476 28.544 11.742-12.273c.827-.886 1.492-1.669 1.994-2.348.532-.709.916-1.374 1.152-1.994.236-.65.354-1.3.354-1.95 0-1.3-.428-2.319-1.285-3.057-.827-.738-1.905-1.108-3.234-1.108-1.359 0-2.57.354-3.633 1.063-1.034.709-2.009 1.831-2.924 3.367l-4.121-3.5c1.241-2.097 2.777-3.678 4.608-4.741C6.99.91 9.117.364 11.509.364c2.038 0 3.81.399 5.317 1.196 1.536.798 2.718 1.905 3.545 3.323s1.241 3.072 1.241 4.962c0 1.27-.162 2.422-.487 3.456-.295 1.034-.812 2.068-1.551 3.102-.709 1.004-1.698 2.142-2.969 3.412l-8.551 8.729H.477zm0 3.456v-3.456l5.14-1.772h16.66V32H.477z"
      />
    </symbol>
    <symbol id="icon-3" viewBox="0 0 23 32">
      <path d="M10.422 31.951c-2.097 0-4.017-.369-5.76-1.108-1.743-.768-3.205-1.861-4.386-3.279l3.988-3.943c.591.886 1.433 1.595 2.526 2.127s2.274.798 3.545.798c1.182 0 2.201-.207 3.057-.62.857-.443 1.521-1.049 1.994-1.817.502-.798.753-1.713.753-2.747 0-1.093-.251-2.023-.753-2.791-.473-.768-1.167-1.359-2.082-1.772s-2.009-.62-3.279-.62c-.561 0-1.137.044-1.728.133-.591.059-1.093.162-1.506.31l2.658-3.367a21.674 21.674 0 0 1 2.171-.576 8.795 8.795 0 0 1 2.038-.266c1.595 0 3.028.384 4.298 1.152 1.3.738 2.319 1.802 3.057 3.19.768 1.359 1.152 2.969 1.152 4.83 0 2.068-.487 3.884-1.462 5.45-.975 1.536-2.348 2.747-4.121 3.633-1.743.857-3.796 1.285-6.159 1.285zM6.788 16.62v-3.456l7.975-9.26 6.912-.089-8.241 9.438-6.646 3.367zM2.003 5.588V.36h19.673v3.456l-4.918 1.772H2.004z"/>
    </symbol>
    <symbol id="icon-4" viewBox="0 0 26 32">
      <path d="M.125 20.84 10.925.365h6.75L6.605 20.84H.125zm0 3.6v-3.6l2.25-1.755h22.68v5.355H.125zM15.065 32V11.84h6.03V32h-6.03z"/>
    </symbol>
</svg>


