<svg aria-hidden="true" style="position: absolute; width: 0; height: 0; overflow: hidden;" version="1.1" xmlns="http://www.w3.org/2000/svg" xmlns:xlink="http://www.w3.org/1999/xlink">
<defs>
<symbol id="telegram" viewBox="0 0 32 32" fill="none" stroke="currentColor">
<path stroke-linejoin="round" stroke-linecap="round" stroke-miterlimit="4" stroke-width="2" d="M24 10.667l-17.333 6 6 2M24 10.667l-11.333 8M24 10.667l-5.333 14-6-6"></path>
<path stroke-linejoin="round" stroke-linecap="round" stroke-miterlimit="4" stroke-width="2" d="M16 29.333c7.364 0 13.333-5.969 13.333-13.333s-5.969-13.333-13.333-13.333c-7.364 0-13.333 5.969-13.333 13.333s5.969 13.333 13.333 13.333z"></path>
</symbol>
<symbol id="burgerMenu" viewBox="0 0 31 32">
<path fill="none" stroke="#f1f1f1"  stroke-linejoin="round" stroke-linecap="round" stroke-miterlimit="4" stroke-width="3.2456" d="M3.895 8.211h23.368M3.895 16h23.368M3.895 23.789h23.368"></path>
</symbol>
<symbol id="copyright" viewBox="0 0 33 32">
<path fill="#f1f1f1" style="fill: var(--color1, #f1f1f1)" d="M16.65 2.5c-2.67 0-5.28 0.792-7.5 2.275s-3.95 3.592-4.972 6.059-1.289 5.181-0.768 7.8c0.521 2.619 1.807 5.024 3.695 6.912s4.293 3.174 6.912 3.695c2.619 0.521 5.333 0.254 7.8-0.768s4.575-2.752 6.059-4.972c1.483-2.22 2.275-4.83 2.275-7.5-0.004-3.579-1.428-7.011-3.958-9.542s-5.962-3.954-9.542-3.958zM16.65 26.5c-2.077 0-4.107-0.616-5.834-1.77s-3.072-2.794-3.867-4.712-1.003-4.030-0.598-6.067c0.405-2.037 1.405-3.908 2.874-5.376s3.339-2.468 5.376-2.874 4.148-0.197 6.067 0.598c1.919 0.795 3.559 2.14 4.712 3.867s1.77 3.757 1.77 5.834c-0.003 2.784-1.11 5.453-3.079 7.421s-4.638 3.076-7.421 3.079zM21.849 19.901c-0.819 1.091-1.96 1.897-3.262 2.303s-2.699 0.393-3.993-0.039c-1.294-0.432-2.419-1.259-3.217-2.366s-1.227-2.436-1.227-3.8c0-1.364 0.429-2.694 1.227-3.8s1.923-1.934 3.217-2.366c1.294-0.432 2.691-0.445 3.993-0.039s2.443 1.212 3.262 2.303c0.123 0.157 0.213 0.337 0.265 0.529s0.066 0.393 0.040 0.591c-0.026 0.198-0.091 0.388-0.192 0.56s-0.234 0.322-0.394 0.442c-0.159 0.12-0.341 0.207-0.534 0.255s-0.394 0.059-0.591 0.029-0.386-0.098-0.556-0.202c-0.17-0.104-0.318-0.24-0.435-0.402-0.441-0.588-1.055-1.022-1.756-1.241s-1.454-0.212-2.15 0.020-1.303 0.678-1.733 1.274c-0.43 0.596-0.661 1.312-0.661 2.046s0.231 1.451 0.661 2.046c0.43 0.596 1.036 1.042 1.733 1.274s1.449 0.239 2.15 0.020c0.701-0.219 1.316-0.653 1.756-1.241 0.116-0.164 0.263-0.303 0.434-0.408s0.36-0.176 0.559-0.207c0.198-0.031 0.401-0.022 0.595 0.026s0.378 0.136 0.538 0.256c0.16 0.12 0.295 0.272 0.396 0.445s0.166 0.365 0.191 0.564c0.025 0.199 0.010 0.401-0.044 0.594s-0.146 0.374-0.272 0.53z"></path>
</symbol>
<symbol id="cross" width="15" height="15" viewBox="0 0 32 32" stroke="#000">
<path stroke-linejoin="miter" stroke-linecap="round" stroke-miterlimit="4" stroke-width="6.5778" d="M26.667 26.667l-21.333-21.333M26.667 5.333l-21.333 21.333"></path>
</symbol>
<symbol id="location" viewBox="0 0 32 32" fill="currentColor">
<path d="M16.266 2.4c-5.866 0-10.666 4.8-10.666 10.666 0 7.2 9.334 15.334 9.734 15.734 0.266 0.134 0.666 0.266 0.933 0.266s0.667-0.133 0.934-0.266c0.4-0.4 9.734-8.534 9.734-15.734 0-5.866-4.8-10.666-10.667-10.666zM16.266 26c-2.8-2.666-8-8.4-8-12.934 0-4.4 3.6-8 8-8s8 3.6 8 8-5.2 10.267-8 12.934zM16.266 7.734c-2.933 0-5.333 2.4-5.333 5.333s2.4 5.334 5.333 5.334c2.934 0 5.334-2.4 5.334-5.334s-2.4-5.333-5.334-5.333zM16.266 15.734c-1.471-0.005-2.662-1.196-2.666-2.667v-0c0-1.466 1.2-2.666 2.666-2.666s2.667 1.2 2.667 2.666c0 1.467-1.2 2.667-2.667 2.667z"></path>
</symbol>
<symbol id="mail" viewBox="0 0 32 32" stroke="none" fill="currentColor">
<path d="M5.333 26.666c-0.011 0-0.024 0-0.037 0-0.725 0-1.379-0.3-1.846-0.783l-0.001-0.001c-0.483-0.468-0.783-1.122-0.783-1.847 0-0.013 0-0.026 0-0.038l-0 0.002v-16c0-0.734 0.261-1.361 0.784-1.883 0.468-0.484 1.122-0.784 1.847-0.784 0.012 0 0.025 0 0.037 0l-0.002-0h21.334c0.011-0 0.023-0 0.036-0 0.725 0 1.38 0.3 1.847 0.784l0.001 0.001c0.484 0.468 0.784 1.122 0.784 1.847 0 0.013-0 0.025-0 0.038l0-0.002v16c0 0.011 0 0.023 0 0.036 0 0.725-0.3 1.38-0.784 1.847l-0.001 0.001c-0.468 0.484-1.122 0.784-1.847 0.784-0.013 0-0.025-0-0.038-0l0.002 0h-21.334zM16 17.334l-10.667-6.667v13.334h21.334v-13.334l-10.666 6.667zM16 14.666l10.666-6.666h-21.334l10.667 6.666zM5.333 10.666v0z"></path>
</symbol>
<symbol id="phone" viewBox="0 0 32 32" stroke="none" fill="currentColor">
<path  d="M26.6 28c-2.778 0-5.522-0.606-8.234-1.816-2.711-1.212-5.178-2.928-7.4-5.15s-3.938-4.689-5.15-7.4c-1.211-2.712-1.817-5.456-1.817-8.234 0-0.4 0.134-0.734 0.4-1s0.6-0.4 1-0.4h5.4c0.311 0 0.589 0.106 0.834 0.317s0.389 0.461 0.433 0.75l0.867 4.667c0.044 0.355 0.033 0.656-0.034 0.9s-0.189 0.456-0.366 0.633l-3.234 3.267c0.497 0.907 1.021 1.686 1.608 2.414l-0.024-0.031c0.648 0.808 1.308 1.53 2.010 2.21l0.006 0.006c0.689 0.69 1.411 1.328 2.166 1.917s1.556 1.128 2.4 1.617l3.134-3.133c0.2-0.2 0.461-0.35 0.784-0.45 0.322-0.1 0.638-0.128 0.95-0.083l4.6 0.934c0.311 0.088 0.566 0.25 0.766 0.483s0.3 0.494 0.3 0.783v5.4c0 0.4-0.134 0.734-0.4 1s-0.6 0.4-1 0.4zM8.034 12l2.2-2.2-0.567-3.134h-2.966c0.111 0.912 0.266 1.811 0.466 2.7 0.232 1.010 0.53 1.889 0.904 2.726l-0.037-0.093zM19.966 23.934c0.867 0.378 1.75 0.678 2.65 0.9s1.806 0.366 2.717 0.433v-2.933l-3.134-0.634-2.234 2.234z"></path>
</symbol>
<symbol id="star-filled" viewBox="0 0 36 32">
<path fill="#0d6197" d="M6.892 32l2.874-11.831-9.64-7.958 12.735-1.053 4.952-11.158 4.952 11.158 12.735 1.053-9.64 7.958 2.874 11.831-10.922-6.274-10.922 6.274z"></path>
</symbol>
<symbol id="star-unfilled" viewBox="0 0 35 32">
<path fill="#0d6197" d="M12.056 24.968l5.544-3.2 5.544 3.242-1.452-6.063 4.884-4.042-6.424-0.547-2.552-5.726-2.552 5.684-6.424 0.547 4.884 4.084-1.452 6.021zM6.732 32l2.86-11.832-9.592-7.958 12.672-1.053 4.928-11.158 4.928 11.158 12.672 1.053-9.592 7.958 2.86 11.832-10.868-6.274-10.868 6.274z"></path>
</symbol>
<symbol id="viber" viewBox="0 0 32 32" stroke="none" fill="currentColor">
<path d="M10.62 8.27c-0.048-0.007-0.103-0.012-0.159-0.012-0.206 0-0.398 0.057-0.562 0.155l0.005-0.003h-0.019c-0.514 0.304-0.954 0.669-1.329 1.092l-0.005 0.006c-0.32 0.37-0.494 0.742-0.538 1.102-0.027 0.214-0.008 0.43 0.054 0.634l0.024 0.014c0.4 1.163 0.874 2.165 1.442 3.102l-0.040-0.070c0.782 1.408 1.681 2.623 2.714 3.707l-0.007-0.007 0.032 0.045 0.050 0.038 0.030 0.036 0.038 0.032c1.081 1.029 2.299 1.932 3.619 2.673l0.091 0.047c1.54 0.838 2.474 1.234 3.036 1.4v0.008c0.164 0.050 0.313 0.074 0.464 0.074 0.498-0.038 0.943-0.241 1.287-0.554l-0.002 0.002c0.434-0.384 0.8-0.836 1.086-1.339v-0.009c0.268-0.507 0.178-0.984-0.21-1.308-0.739-0.649-1.56-1.244-2.433-1.759l-0.075-0.041c-0.597-0.324-1.204-0.128-1.449 0.2l-0.524 0.661c-0.27 0.328-0.758 0.283-0.758 0.283l-0.014 0.008c-3.641-0.93-4.613-4.616-4.613-4.616s-0.046-0.502 0.292-0.758l0.656-0.528c0.314-0.256 0.533-0.862 0.196-1.458-0.552-0.948-1.146-1.769-1.811-2.525l0.015 0.017c-0.146-0.178-0.349-0.304-0.581-0.349l-0.006-0.001 0.003 0.002zM16.773 6.666c-0.368 0-0.667 0.299-0.667 0.667s0.299 0.667 0.667 0.667v0c1.686 0 3.086 0.55 4.194 1.606 0.552 0.559 0.994 1.228 1.29 1.971l0.014 0.040c0.292 0.75 0.426 1.552 0.39 2.354-0 0.008-0.001 0.018-0.001 0.028 0 0.369 0.299 0.667 0.667 0.667 0.359 0 0.651-0.283 0.667-0.638l0-0.001c0.004-0.089 0.006-0.194 0.006-0.299 0-0.934-0.179-1.826-0.505-2.643l0.017 0.048c-0.381-0.963-0.925-1.785-1.605-2.473l0.001 0.001-0.014-0.013c-1.374-1.314-3.114-1.983-5.122-1.983z"></path>
<path d="M16.727 8.858c-0.368 0-0.667 0.299-0.667 0.667s0.299 0.667 0.667 0.667v0h0.022c1.216 0.086 2.102 0.492 2.721 1.158 0.637 0.685 0.966 1.537 0.94 2.59 0.001 0.368 0.299 0.665 0.667 0.665 0.357 0 0.649-0.28 0.666-0.633l0-0.002c0.032-1.382-0.414-2.576-1.296-3.528v-0.002c-0.902-0.968-2.141-1.48-3.632-1.58l-0.022-0.002-0.067 0.001z"></path>
<path d="M16.701 11.092c-0.016-0.001-0.035-0.002-0.055-0.002-0.368 0-0.666 0.298-0.666 0.666 0 0.363 0.29 0.658 0.652 0.666h0.001c0.557 0.030 0.913 0.198 1.137 0.423 0.226 0.226 0.394 0.59 0.424 1.16 0.004 0.366 0.301 0.661 0.667 0.661 0.369 0 0.667-0.299 0.667-0.667 0-0.023-0.001-0.046-0.003-0.068l0 0.003c-0.043-0.8-0.294-1.506-0.807-2.026-0.516-0.52-1.218-0.774-2.016-0.816z"></path>
<path d="M9.422 3.178c1.936-0.452 4.159-0.711 6.443-0.711s4.507 0.259 6.641 0.75l-0.199-0.038 0.452 0.1c2.537 0.581 4.51 2.507 5.152 4.97l0.011 0.048c0.513 1.941 0.808 4.17 0.808 6.467s-0.295 4.526-0.848 6.65l0.040-0.183c-0.652 2.511-2.626 4.436-5.116 5.008l-0.046 0.009-0.454 0.1c-1.937 0.453-4.161 0.712-6.446 0.712-0.583 0-1.161-0.017-1.736-0.050l0.079 0.004-3.538 3.166c-0.176 0.158-0.41 0.255-0.667 0.255-0.494 0-0.904-0.358-0.985-0.829l-0.001-0.006-0.585-3.496c-2.279-0.725-4.015-2.544-4.609-4.824l-0.011-0.048c-0.513-1.941-0.808-4.17-0.808-6.467s0.295-4.526 0.848-6.65l-0.040 0.183c0.652-2.511 2.626-4.436 5.116-5.009l0.046-0.009 0.452-0.1zM21.872 5.13c-1.805-0.422-3.878-0.663-6.007-0.663s-4.202 0.242-6.192 0.699l0.185-0.036-0.454 0.101c-1.798 0.413-3.196 1.778-3.651 3.524l-0.008 0.034c-0.474 1.793-0.746 3.852-0.746 5.975s0.272 4.181 0.784 6.144l-0.037-0.169c0.462 1.78 1.862 3.145 3.627 3.55l0.033 0.006 0.12 0.027c0.396 0.091 0.699 0.408 0.767 0.804l0.001 0.006 0.392 2.344 2.496-2.234c0.176-0.158 0.41-0.255 0.667-0.255 0.025 0 0.049 0.001 0.073 0.003l-0.003-0c2.666 0.189 5.344-0.011 7.952-0.594l0.452-0.102c1.798-0.412 3.197-1.777 3.652-3.523l0.008-0.034c0.474-1.793 0.746-3.852 0.746-5.975s-0.272-4.181-0.783-6.144l0.037 0.169c-0.462-1.78-1.862-3.145-3.627-3.551l-0.033-0.006-0.452-0.101z"></path>
</symbol>
<symbol id="placeholder" viewBox="0 0 38 32">
<path fill="#fff" d="M34.733 0h-32.083c-1.464 0-2.65 1.181-2.65 2.638v26.566c0 1.457 1.186 2.638 2.65 2.638h32.083c1.463 0 2.65-1.181 2.65-2.638v-26.566c0-1.457-1.186-2.638-2.65-2.638z"></path>
<path fill="#f1f1f1" d="M34.733 27.508v-23.175c0-0.937-0.763-1.696-1.703-1.696h-28.676c-0.941 0-1.704 0.759-1.704 1.696v23.175c0 0.936 0.763 1.696 1.704 1.696h28.676c0.941 0 1.703-0.759 1.703-1.696z"></path>
<path fill="#fff" d="M25.6 16.42c-0.122-0.139-0.273-0.25-0.442-0.326s-0.352-0.115-0.538-0.115c-0.185 0-0.369 0.039-0.538 0.115s-0.32 0.187-0.442 0.326l-1.281 1.453c-0.125 0.141-0.28 0.254-0.454 0.33s-0.361 0.113-0.551 0.11-0.376-0.048-0.546-0.131c-0.17-0.082-0.321-0.201-0.441-0.347l-4.189-5.123c-0.122-0.15-0.276-0.27-0.451-0.353s-0.366-0.126-0.56-0.126-0.385 0.043-0.56 0.126c-0.175 0.083-0.329 0.203-0.451 0.353l-11.508 14.076v3.702h32.083v-3.732l-9.133-10.338z"></path>
<path fill="#fff" d="M27.444 13.27c1.808 0 3.275-1.459 3.275-3.26s-1.466-3.259-3.275-3.259c-1.808 0-3.274 1.459-3.274 3.259s1.466 3.26 3.274 3.26z"></path>
</symbol>
</defs>
</svg>
