<svg xmlns="http://www.w3.org/2000/svg" width="40" height="40" fill="none"><path fill="#F1F1F1" d="M13.275 10.337a1.37 1.37 0 0 0-.895.176h-.024a6.845 6.845 0 0 0-1.668 1.372c-.4.462-.617.928-.673 1.378-.034.267-.01.537.068.792l.03.017a19.79 19.79 0 0 0 1.753 3.79 22.294 22.294 0 0 0 3.384 4.625l.04.056.063.047.038.045.047.04a22.603 22.603 0 0 0 4.637 3.4c1.925 1.048 3.093 1.543 3.795 1.75v.01c.205.063.391.092.58.092a2.684 2.684 0 0 0 1.606-.69c.542-.48 1-1.045 1.357-1.674v-.011c.335-.634.222-1.23-.262-1.635a20.206 20.206 0 0 0-3.135-2.25c-.746-.405-1.505-.16-1.811.25l-.655.826c-.337.41-.947.354-.947.354l-.017.01c-4.551-1.162-5.766-5.77-5.766-5.77s-.057-.627.365-.947l.82-.66c.393-.32.666-1.077.245-1.823a19.668 19.668 0 0 0-2.245-3.134 1.246 1.246 0 0 0-.734-.438l.004.002Zm7.691-2.004a.833.833 0 1 0 0 1.667c2.107 0 3.857.688 5.242 2.008a7.387 7.387 0 0 1 1.63 2.514c.365.938.532 1.94.488 2.943a.834.834 0 1 0 1.667.07 8.931 8.931 0 0 0-.602-3.617 9.068 9.068 0 0 0-2.006-3.09l-.017-.016c-1.718-1.642-3.892-2.479-6.402-2.479Z"/><path fill="#F1F1F1" d="M20.909 11.073a.833.833 0 0 0 0 1.667h.028c1.52.108 2.627.615 3.401 1.447.796.856 1.207 1.921 1.175 3.238a.834.834 0 0 0 1.667.038c.04-1.728-.517-3.22-1.62-4.41v-.003c-1.128-1.21-2.676-1.85-4.54-1.975l-.028-.003-.084.001Z"/><path fill="#F1F1F1" d="M20.876 13.865a.833.833 0 1 0-.086 1.663c.696.037 1.141.247 1.421.529.282.283.492.738.53 1.45a.834.834 0 1 0 1.664-.089c-.054-1-.367-1.883-1.009-2.533-.645-.65-1.523-.967-2.52-1.02Z"/><path fill="#F1F1F1" fill-rule="evenodd" d="M11.778 3.973a36.917 36.917 0 0 1 16.107 0l.565.125a8.591 8.591 0 0 1 6.453 6.272 32.863 32.863 0 0 1 0 16.167 8.591 8.591 0 0 1-6.453 6.271l-.567.125a36.913 36.913 0 0 1-10.128.832l-4.422 3.957a1.25 1.25 0 0 1-2.067-.725l-.731-4.37a8.592 8.592 0 0 1-5.775-6.09 32.862 32.862 0 0 1 0-16.167 8.592 8.592 0 0 1 6.453-6.272l.565-.125ZM27.34 6.412a34.417 34.417 0 0 0-15.017 0l-.567.126a6.092 6.092 0 0 0-4.573 4.447 30.362 30.362 0 0 0 0 14.937 6.09 6.09 0 0 0 4.575 4.446l.15.034a1.25 1.25 0 0 1 .96 1.013l.49 2.93 3.12-2.792a1.25 1.25 0 0 1 .922-.316c3.332.236 6.68-.014 9.94-.742l.565-.127a6.092 6.092 0 0 0 4.575-4.446 30.374 30.374 0 0 0 0-14.937 6.092 6.092 0 0 0-4.575-4.447l-.565-.126Z" clip-rule="evenodd"/></svg>