<svg width="34" height="26" viewBox="0 0 34 26" fill="none" xmlns="http://www.w3.org/2000/svg">
<path d="M0.688827 14.9873C0.635434 14.9447 2.20756 12.8912 2.78302 12.1692C2.9432 11.9757 3.09547 11.7609 3.26356 11.5654C3.38934 11.4384 3.49951 11.2974 3.59183 11.1454C3.69033 10.9186 3.73755 10.6736 3.73025 10.4273C3.75596 10.0983 3.84298 9.77699 3.89439 9.45957C4.03875 8.54409 4.59839 7.43506 4.72693 7.18731C5.21396 6.26882 5.83925 5.42716 6.58184 4.69054C7.69487 3.52795 9.00145 2.5587 10.4459 1.82409C11.9312 1.04354 13.5624 0.564925 15.2414 0.41699C15.2414 0.41699 20.2248 0.000861436 24.2292 3.2757C25.5073 4.32711 26.5916 5.58537 27.4348 6.9957C27.5159 7.13118 27.5099 7.14473 27.6326 7.3828C27.7492 7.57635 27.8422 7.71957 27.8046 7.75635C27.767 7.79312 27.767 7.75635 27.7413 7.75635C27.7212 7.75438 27.7013 7.75048 27.682 7.74473C27.2466 7.61492 26.8035 7.5115 26.3551 7.43506L25.481 7.24151C23.5742 6.87168 21.6285 6.73064 19.6869 6.82151C16.8969 6.95604 14.1399 7.47201 11.496 8.35441C6.49483 10.0557 3.38815 12.6338 3.1014 12.8757C2.81466 13.1176 1.09027 14.6486 0.955794 14.7783C0.933859 14.8007 0.910756 14.822 0.886579 14.8422C0.856916 14.8634 0.70267 14.9989 0.688827 14.9873Z" fill="#0D6197"/>
<path d="M17.9937 8.46484C20.1333 7.68946 22.446 7.48896 24.6915 7.8842L17.9937 8.46484Z" fill="#0D6197"/>
<path d="M4.94629 17.6313C5.86962 15.824 7.15791 14.2187 8.73325 12.9126C9.99379 11.8964 11.4004 11.0675 12.9078 10.4526C13.6118 10.1448 14.6698 9.72872 14.7192 9.82356C14.7844 9.9513 12.9948 10.8223 10.865 12.2952C9.77816 13.0467 8.73811 13.8611 7.75041 14.7339" fill="#0D6197"/>
<path d="M8.61278 22.1874C9.12891 24.7655 17.565 26.6003 22.8094 23.5693C23.743 23.0121 24.6019 22.343 25.3663 21.5777C26.0703 20.8848 27.8145 19.1293 28.6648 16.3519C28.8866 15.6149 29.0389 14.8594 29.1197 14.0952C29.3174 12.4364 29.4301 11.5345 29.0682 10.4564C28.9239 10.0248 28.7894 9.80999 28.9002 9.68225C29.3115 9.20418 32.6792 10.7642 32.8552 10.8435C32.9027 10.8648 33.053 10.9364 33.0826 10.8997C33.1123 10.8629 32.9125 10.6326 32.8433 10.559C31.6568 9.31451 29.8336 8.81709 29.8336 8.81709C28.9977 8.58351 28.1321 8.46751 27.2628 8.47257C24.8739 8.5016 20.1615 9.40354 15.4154 12.8545C13.7789 14.0165 12.3216 15.403 11.0886 16.9713C10.0999 18.2564 9.06958 19.5126 8.7156 21.3203C8.6108 21.75 8.56928 21.9687 8.61278 22.1874Z" fill="#061B29"/>
</svg>
