<svg width="292" height="228" viewBox="0 0 292 228" fill="none" xmlns="http://www.w3.org/2000/svg">
<g clip-path="url(#clip0_552_97)">
<path d="M0.0178265 134.432C-0.46361 134.04 13.712 115.123 18.9008 108.473C20.3451 106.69 21.7182 104.711 23.2338 102.91C24.3679 101.74 25.3613 100.442 26.1937 99.0414C27.0819 96.9523 27.5076 94.6958 27.4419 92.4268C27.6737 89.3958 28.4583 86.4361 28.9219 83.5121C30.2235 75.0789 35.2697 64.8628 36.4287 62.5807C40.8202 54.1197 46.4583 46.3665 53.1542 39.581C63.1902 28.8714 74.9714 19.9429 87.9958 13.1759C101.388 5.98571 116.096 1.57679 131.236 0.214044C131.236 0.214044 176.17 -3.61923 212.278 26.5478C223.802 36.2332 233.578 47.8239 241.182 60.8156C241.913 62.0636 241.859 62.1884 242.965 64.3814C244.017 66.1643 244.855 67.4837 244.516 67.8224C244.177 68.1612 244.177 67.8224 243.946 67.8224C243.764 67.8043 243.585 67.7684 243.411 67.7155C239.485 66.5196 235.489 65.5669 231.446 64.8628L223.565 63.0799C206.372 59.6731 188.827 58.3739 171.32 59.2109C146.163 60.4502 121.303 65.2032 97.4641 73.3317C52.3695 89.0036 24.3571 112.752 21.7716 114.981C19.1861 117.209 3.63752 131.312 2.42502 132.507C2.22724 132.714 2.01892 132.91 1.80092 133.095C1.53346 133.291 0.142643 134.539 0.0178265 134.432Z" fill="#0D6197"/>
<path d="M156.057 74.3471C175.349 67.2044 196.203 65.3576 216.45 68.9984L156.057 74.3471Z" fill="#0D6197"/>
<path d="M38.4082 158.787C46.7337 142.138 58.3501 127.351 72.5546 115.319C83.9207 105.959 96.6039 98.3229 110.196 92.6584C116.544 89.8236 126.083 85.9903 126.529 86.8639C127.117 88.0406 110.98 96.0638 91.7763 109.632C81.9764 116.555 72.5984 124.056 63.6925 132.097" fill="#0D6197"/>
<path d="M71.4665 200.757C76.1204 224.506 152.187 241.408 199.475 213.487C207.893 208.354 215.638 202.191 222.53 195.141C228.878 188.758 244.605 172.587 252.272 147.002C254.272 140.213 255.645 133.254 256.374 126.213C258.157 110.934 259.173 102.625 255.91 92.6944C254.608 88.7185 253.396 86.7394 254.394 85.5627C258.103 81.1589 288.469 95.5292 290.056 96.2602C290.484 96.4563 291.839 97.116 292.107 96.7773C292.374 96.4385 290.573 94.3168 289.949 93.6393C279.251 82.1751 262.811 77.593 262.811 77.593C255.274 75.4414 247.469 74.3728 239.63 74.4194C218.091 74.6869 175.599 82.9953 132.805 114.785C118.048 125.489 104.909 138.261 93.7908 152.707C84.8753 164.546 75.5854 176.117 72.3936 192.77C71.4486 196.728 71.0742 198.743 71.4665 200.757Z" fill="#FFF734"/>
</g>
<defs>
<clipPath id="clip0_552_97">
<rect width="292" height="228" fill="white"/>
</clipPath>
</defs>
</svg>
