<svg width="58" height="40" viewBox="0 0 58 40" fill="none" xmlns="http://www.w3.org/2000/svg">
<path d="M28.8141 39.8937C44.6657 39.8937 57.516 31.0621 57.516 20.1678C57.516 9.2734 44.6657 0.441772 28.8141 0.441772C12.9626 0.441772 0.112305 9.2734 0.112305 20.1678C0.112305 31.0621 12.9626 39.8937 28.8141 39.8937Z" fill="#E0DFEB" stroke="#000066" stroke-width="0.22" stroke-miterlimit="2.41"/>
<path d="M28.9989 39.4552C13.3383 39.4552 0.596313 30.7263 0.596313 20.0005C0.596313 9.27474 13.3383 0.548033 28.9989 0.548033C44.6596 0.548033 57.4016 9.27367 57.4016 20.0005C57.4016 30.7274 44.6607 39.4552 28.9989 39.4552ZM58 20.0005C58 8.9723 44.9897 0 28.9989 0C13.0082 0 0 8.9723 0 20.0005C0 31.0288 13.0082 40 28.9989 40C44.9897 40 58 31.0277 58 20.0005Z" fill="#000066"/>
<path d="M0.296875 20.274H57.7006V19.726H0.296875V20.274Z" fill="#000066"/>
<path d="M2.05185 13.6966C2.18602 13.7127 15.6819 15.3471 28.9988 15.3471C42.3158 15.3471 55.8116 13.7159 55.9469 13.6966L55.867 13.1539C55.7328 13.17 42.2774 14.7991 28.9988 14.7991C15.7202 14.7991 2.26482 13.17 2.12958 13.1539L2.05078 13.6966H2.05185Z" fill="#000066"/>
<path d="M7.42383 7.11912C7.53031 7.13628 18.3119 8.76429 28.9657 8.76429C39.6407 8.76429 50.466 7.13628 50.5746 7.11912L50.4766 6.58289C50.3701 6.59897 39.5907 8.21948 28.9667 8.21948C18.3619 8.21948 7.62934 6.59897 7.52286 6.58289L7.42489 7.11912H7.42383Z" fill="#000066"/>
<path d="M55.9468 26.3088C55.8116 26.2927 42.3168 24.6572 28.9987 24.6572C15.6807 24.6572 2.18593 26.2927 2.05176 26.3088L2.13056 26.8515C2.26473 26.8354 15.7201 25.2053 28.9987 25.2053C42.2774 25.2053 55.7327 26.8354 55.8669 26.8515L55.9468 26.3088Z" fill="#000066"/>
<path d="M50.5804 32.8852C50.4739 32.8691 39.6913 31.2411 29.0375 31.2411C18.3625 31.2411 7.53724 32.8691 7.42969 32.8852L7.52765 33.4214C7.63414 33.4053 18.4136 31.7838 29.0375 31.7838C39.6423 31.7838 50.3749 33.4053 50.4814 33.4214L50.5804 32.8852Z" fill="#000066"/>
<path d="M40.5172 37.8164C40.4597 37.8089 34.6808 37.0775 28.9764 37.0775C23.2721 37.0775 17.4921 37.8089 17.4346 37.8164L17.5176 38.3527C17.5751 38.3462 23.3136 37.6202 28.9764 37.6202C34.6393 37.6202 40.3777 38.3462 40.4352 38.3527L40.5172 37.8164Z" fill="#000066"/>
<path d="M28.929 0.00743625C28.8481 0.0256683 20.7297 1.87032 14.4822 7.51474C9.78414 11.7617 7.19869 16.2018 7.19337 20.0251C7.18804 23.8485 9.7671 28.2746 14.4588 32.4658C20.6999 38.033 28.8449 39.9731 28.9258 39.9946L29.0727 39.4583C28.9929 39.4401 20.9991 37.5279 14.8847 32.0754C10.3059 27.9829 7.78436 23.7048 7.79075 20.023C7.79714 16.3412 10.3187 12.0449 14.8911 7.91263C21.031 2.36795 28.9897 0.555471 29.0696 0.538311L28.929 0.0020752V0.00743625Z" fill="#000066"/>
<path d="M29.1937 39.5185C29.0702 39.4209 16.8074 29.626 16.8074 19.9995C16.8074 10.373 29.0702 0.579171 29.1937 0.481576L28.804 0.0665283C28.2897 0.472995 16.209 10.1285 16.209 20.0006C16.209 29.8727 28.2897 39.5281 28.804 39.9335L29.1937 39.5185Z" fill="#000066"/>
<path d="M28.6992 39.7254H29.2966V0.273438H28.6992V39.7254Z" fill="#000066"/>
<path d="M29.1352 39.9915C29.2172 39.9732 37.3345 38.1296 43.582 32.4841L43.5969 32.4702C48.2822 28.2404 50.8623 23.8014 50.8687 19.977C50.8751 16.1525 48.2939 11.7275 43.6033 7.5363C37.3612 1.96802 29.2172 0.0289916 29.1352 0.00646973L28.9883 0.537343C29.0681 0.556648 37.063 2.46779 43.1763 7.92024C47.7604 12.0128 50.2767 16.2855 50.2703 19.9727C50.2639 23.6598 47.7434 27.9508 43.1699 32.083C37.0332 37.632 29.0703 39.4423 28.9947 39.4552L29.1352 39.9915Z" fill="#000066"/>
<path d="M28.8701 0.481576C28.9936 0.579171 41.2575 10.3741 41.2575 20.0006C41.2575 29.6271 28.9936 39.4209 28.8701 39.5196L29.2609 39.9346C29.7752 39.5281 41.8548 29.8727 41.8548 20.0016C41.8548 10.1306 29.7752 0.472995 29.2609 0.0665283L28.8701 0.481576Z" fill="#000066"/>
<path d="M17.4805 2.18891C17.538 2.19642 23.3169 2.92785 29.0213 2.92785C34.7256 2.92785 40.5056 2.19642 40.5631 2.18891L40.4811 1.64624C40.4236 1.65375 34.6841 2.37981 29.0213 2.37981C23.3584 2.37981 17.62 1.65375 17.5635 1.64624L17.4805 2.18891Z" fill="#000066"/>
<path d="M44.2803 35.1396C44.2803 36.1478 43.1281 36.9628 41.7087 36.9628H15.9905C14.57 36.9628 13.4189 36.1445 13.4189 35.1396V31.948C13.4189 30.9398 14.57 30.1248 15.9905 30.1248H41.7087C43.1281 30.1248 44.2803 30.9431 44.2803 31.948V35.145V35.1396Z" fill="#E0DFEB"/>
<path d="M42.4736 35.1321H43.5694V36.137H42.4736V35.1321Z" fill="#000066"/>
<path d="M39.7948 36.137V31.787H38.1006V30.9022H42.6294V31.787H40.948V36.137H39.7948Z" fill="#000066"/>
<path d="M36.2715 35.1321H37.3672V36.137H36.2715V35.1321Z" fill="#000066"/>
<path d="M33.5591 34.0649L32.7669 32.1237L31.9949 34.0649H33.5591ZM35.6729 36.1369H34.4195L33.9233 34.9507H31.6424L31.1707 36.138H29.9482L32.1695 30.9043H33.3973L35.6729 36.1369Z" fill="#000066"/>
<path d="M28.2979 35.1321H29.3946V36.137H28.2979V35.1321Z" fill="#000066"/>
<path d="M22.5732 36.137V30.9022H23.7254V33.2273L26.0542 30.9022H27.6025L25.4494 32.9399L27.7154 36.137H26.2246L24.6539 33.681L23.7254 34.5561V36.137H22.5732Z" fill="#000066"/>
<path d="M20.3262 35.1321H21.423V36.137H20.3262V35.1321Z" fill="#000066"/>
<path d="M18.2312 34.2129L19.3461 34.5346C19.1757 35.1066 18.8917 35.5327 18.4942 35.813C18.0966 36.0933 17.5919 36.2323 16.98 36.2302C16.2232 36.2302 15.6014 35.9928 15.1144 35.5181C14.6274 35.0433 14.3835 34.3945 14.3828 33.5715C14.3828 32.7007 14.6277 32.0243 15.1176 31.5424C15.6074 31.0605 16.2509 30.8196 17.0481 30.8196C17.7445 30.8196 18.3103 31.0083 18.7455 31.3858C19.027 31.6453 19.2293 31.9801 19.329 32.3511L18.1886 32.602C18.1288 32.3426 17.9775 32.1139 17.7626 31.9585C17.5362 31.7971 17.2637 31.7143 16.9864 31.7226C16.7958 31.715 16.6059 31.7483 16.4291 31.8202C16.2523 31.8921 16.0927 32.0011 15.9609 32.1398C15.699 32.4186 15.568 32.8701 15.568 33.4943C15.568 34.1557 15.6972 34.6269 15.9556 34.9078C16.0839 35.047 16.2405 35.1567 16.4147 35.2294C16.5889 35.3021 16.7766 35.3362 16.9651 35.3293C17.2509 35.3364 17.53 35.2414 17.753 35.0612C17.9738 34.8825 18.1318 34.6008 18.2269 34.2161L18.2312 34.2129Z" fill="#000066"/>
<path fill-rule="evenodd" clip-rule="evenodd" d="M25.3433 3.35045C26.4816 2.4989 26.8341 0.900921 27.6125 0.642455C28.1183 0.474077 28.6923 0.742196 28.7317 1.21301C28.8083 2.13748 27.4538 4.72321 26.7564 5.32809C26.3091 5.71632 23.827 7.19097 23.5363 8.04358C23.3883 8.48222 23.6971 10.0877 24.5213 10.269C25.1463 10.4062 27.7722 10.1403 27.7722 10.1403C28.8509 10.0159 30.0393 10.003 31.0786 9.6791C32.4629 9.25011 33.8227 8.73533 35.0504 7.9846C36.4901 7.10517 37.917 6.02519 38.9403 4.74466C39.6314 3.87918 40.7506 2.70696 41.891 3.23033C42.8771 3.68291 42.7205 3.86738 43.0325 4.82724C43.4074 6.0627 43.5387 7.36008 43.4191 8.64632C43.2923 9.92256 42.9601 10.8384 42.6204 12.1093C42.1455 13.8864 41.7473 15.5166 41.3298 17.3097C41.1446 18.1087 40.6654 19.2295 40.757 20.021C40.8006 20.3974 41.3469 20.7309 41.5865 21.0108C41.7451 21.1953 41.6876 21.634 41.7707 21.8549C41.9325 22.2839 42.1093 22.4984 42.317 22.9166C42.6492 23.5923 42.7706 23.8819 42.8291 24.624C42.8813 25.2675 42.9356 25.5678 42.5246 26.1062C42.0007 26.799 41.5662 26.459 41.0977 26.9888C40.922 27.1872 40.7378 28.1524 40.5855 28.4163C40.1447 29.1777 39.1309 29.0158 38.3185 28.8839C37.3399 28.7262 36.4347 28.6029 35.536 28.1739C35.2166 28.0195 33.8184 27.184 33.5916 27.1679C31.923 27.0489 28.4591 28.6329 26.7936 29.0833C24.451 29.7193 22.3394 30.2952 19.9073 30.573C18.6114 30.7199 17.3048 30.8433 16.1707 30.1633C15.4935 29.7569 15.3913 29.7022 15.3455 28.9332C15.2965 28.1224 15.5137 27.731 16.191 27.3545C17.1493 26.8183 17.8638 26.1877 18.6646 25.3865C20.0649 23.9816 20.9189 21.4002 21.3512 19.5147C21.6259 18.3189 22.2734 15.0533 21.6621 13.8467C21.0019 12.5437 20.0457 11.7415 19.8519 10.2314C19.6613 8.76965 20.0574 7.6575 21.0137 6.4574C21.7356 5.55545 22.0561 5.30985 23.0294 4.83153C24.1411 4.27814 24.4914 3.98535 25.3433 3.35045Z" fill="#E0DFEB"/>
<path d="M36.3356 27.0666L36.3857 27.0731C36.2529 27.059 36.1191 27.059 35.9864 27.0731C35.7606 27.0816 35.5604 27.0066 35.5828 26.776L35.5083 26.6955C34.0973 25.1866 31.9048 26.2741 30.2 26.7266C29.8752 26.8017 25.0344 28.0726 24.7853 28.1369C22.7855 28.6646 20.8933 29.4132 18.7742 29.6095C18.502 29.6351 18.2286 29.644 17.9553 29.6363C17.6695 29.6285 17.3848 29.5988 17.1035 29.5472L17.0193 29.5161C16.7702 29.4175 16.4624 29.3231 16.4922 29.1268L16.4986 29.0475C16.5466 28.819 16.8873 28.7718 17.0619 28.6346C17.8955 28.1668 18.6696 27.5989 19.3673 26.9433C19.5874 26.7288 19.7968 26.5082 19.9956 26.2816C20.1649 26.0767 20.3246 25.8665 20.4769 25.651C20.6292 25.4354 20.7719 25.2166 20.9028 24.9925C21.246 24.3039 21.5486 23.5956 21.809 22.8711C21.8963 22.6309 21.9783 22.3896 22.0571 22.1472C22.2147 21.6678 22.4288 21.2034 22.5778 20.7197C22.7279 20.2312 22.8523 19.735 22.9505 19.2333C23.1448 18.2317 23.2309 17.212 23.2072 16.1918C23.1986 15.8057 23.1348 15.2104 23.1007 14.9691C23.0677 14.7546 23.0389 13.7894 23.3797 13.4119C22.925 12.9368 22.3915 12.4038 22.2797 12.2665C22.0507 11.9834 22.1295 12.0863 21.8005 11.6595L21.5396 11.2573L21.4949 11.1962C21.1424 10.6696 21.0146 10.0476 20.9965 9.44269C20.9905 9.24094 21.0005 9.03903 21.0264 8.83888V8.81529C21.0615 8.40346 21.2713 8.06456 21.3841 7.68168C21.6537 7.2187 22.0125 6.81468 22.4394 6.49339C22.651 6.33487 22.8734 6.19152 23.1049 6.0644C23.3016 5.94214 23.4968 5.81987 23.6906 5.69761C23.8855 5.57642 24.0782 5.45309 24.272 5.33297C25.8608 4.65517 27.5432 2.58208 27.7807 1.14282C27.7632 1.32782 27.7344 1.51156 27.6944 1.693C27.2397 3.76502 25.4338 5.14422 23.5224 6.27889C23.3352 6.42774 23.159 6.59012 22.9953 6.76472C22.8198 6.94446 22.6585 7.13773 22.5129 7.34278C21.9485 8.14499 21.7334 9.09199 22.1317 10.1838C22.2286 10.4353 22.3491 10.677 22.4916 10.9055C22.7046 11.2573 23.2263 11.7968 23.8503 12.3416C23.9232 12.3923 23.9891 12.4526 24.0463 12.5207C24.4647 12.2333 25.2176 11.9962 25.7223 12.037C31.366 12.2901 37.5762 9.73654 40.7611 5.32975L40.8197 5.24396C40.9624 5.067 41.2137 4.50073 41.4331 5.22787L41.4937 5.43378C41.6531 5.95009 41.751 6.48363 41.7855 7.02319C41.7969 7.19907 41.8022 7.37496 41.8015 7.55084C41.793 7.76534 41.7781 7.97233 41.7568 8.18146C41.7355 8.39059 41.7088 8.59865 41.679 8.80671C41.3862 11.0954 40.4726 13.1985 39.9476 15.3981C39.8901 15.6416 39.8358 15.8872 39.7889 16.1349C39.4886 18.0171 38.0596 20.457 39.9795 21.981L40.0754 22.0185C40.4427 22.0432 40.1819 22.6405 40.2511 22.8282L40.3267 22.9194C40.5801 23.3484 40.8154 23.6787 40.9741 23.9393C41.0178 24.0122 41.2808 24.4948 41.3159 24.6686C41.3677 24.8737 41.3849 25.0861 41.367 25.297C41.3351 25.4976 41.1349 25.6906 41.0476 25.7046C40.7398 25.7539 40.2883 25.2756 40.2383 25.193C39.8198 24.6889 39.9188 24.0594 39.5461 23.654L39.5004 23.6251C38.6613 23.0373 38.3173 24.2085 37.8797 24.6031L37.8435 24.631C37.4378 24.9678 37.0076 25.237 36.8095 25.7797L36.7807 25.8504C36.6125 26.2923 37.3313 26.5947 37.8307 26.7148L38.3631 26.7738C38.6826 26.8521 39.4673 27.2618 39.3215 27.6747C39.15 28.1487 38.0937 27.9139 38.0277 27.8624C37.7615 27.8731 36.3505 27.0731 36.3239 27.0698L36.3356 27.0666ZM40.0551 24.0637C40.1085 24.307 40.1815 24.5456 40.2734 24.7769C40.3693 24.971 40.5929 25.3474 40.9358 25.4869C41.2329 25.6091 41.1945 24.7361 40.9209 24.2707C40.6302 23.7698 40.282 23.269 40.2138 23.1564L40.0551 24.0637ZM37.6145 26.8843C37.6049 26.8736 36.7957 26.9915 36.7957 26.9915C36.7957 26.9915 37.5762 27.4527 37.8935 27.5793C38.2108 27.7058 38.5175 27.8227 38.9733 27.7723C39.1255 27.7551 39.1362 27.6576 39.1415 27.6061C39.1532 27.4913 39.0159 27.3841 38.9722 27.3433C38.7778 27.1925 38.555 27.083 38.3173 27.0216C37.9308 26.9444 37.6145 26.8875 37.6145 26.8875V26.8843Z" fill="#000066"/>
</svg>
