<svg width="1166" height="306" viewBox="0 0 1166 306" fill="none" xmlns="http://www.w3.org/2000/svg">
<path d="M366 179.364C468.304 227.075 534.052 197.016 573.378 123.848" stroke="#1A1A18" stroke-width="3" stroke-linecap="round" stroke-dasharray="10 10"/>
<path d="M321.25 119.059C282.377 18.0443 212.783 -2.99731 130.61 24.2971" stroke="#1A1A18" stroke-width="3" stroke-linecap="round" stroke-dasharray="10 10"/>
<path d="M898 252.144C1009.49 275.335 1065.64 231.296 1085.13 151.382" stroke="#1A1A18" stroke-width="3" stroke-linecap="round" stroke-dasharray="10 10"/>
<path d="M832.646 129.99C793.371 29.1979 723.696 8.555 641.634 36.3205" stroke="#1A1A18" stroke-width="3" stroke-linecap="round" stroke-dasharray="10 10"/>
<g clip-path="url(#clip0_764_135)">
<path d="M1144.03 128.864C1173.32 99.5882 1173.32 52.122 1144.03 22.8458C1114.74 -6.43043 1067.26 -6.43043 1037.97 22.8458C1008.68 52.122 1008.68 99.5882 1037.97 128.864C1067.26 158.141 1114.74 158.141 1144.03 128.864Z" fill="#72B6D3"/>
<path d="M1142.27 127.101C1170.58 98.7985 1170.58 52.9117 1142.27 24.6097C1113.95 -3.69242 1068.05 -3.69241 1039.73 24.6097C1011.42 52.9117 1011.42 98.7985 1039.73 127.101C1068.05 155.403 1113.95 155.403 1142.27 127.101Z" fill="#72B6D3"/>
<path d="M1024.16 73.0705C1024.15 73.0705 1024.13 73.0705 1024.12 73.0705C1023.7 73.0472 1023.38 72.6871 1023.4 72.2649C1023.54 69.4182 1023.88 66.5584 1024.38 63.7661C1024.46 63.349 1024.85 63.0745 1025.27 63.1496C1025.69 63.2247 1025.96 63.6236 1025.89 64.0381C1025.39 66.7683 1025.07 69.5632 1024.92 72.3452C1024.9 72.7545 1024.56 73.0705 1024.16 73.0705H1024.16Z" fill="white"/>
<path d="M1031.21 46.5146C1031.1 46.5146 1030.98 46.4887 1030.87 46.4317C1030.49 46.2401 1030.34 45.7816 1030.53 45.4034C1042.12 22.448 1065.29 8.18823 1091 8.18823C1095.1 8.18823 1099.21 8.55865 1103.21 9.28653C1103.63 9.36165 1103.9 9.76056 1103.83 10.1776C1103.75 10.5946 1103.35 10.8718 1102.94 10.7941C1099.02 10.0818 1095.01 9.7217 1091 9.7217C1065.87 9.7217 1043.23 23.6602 1031.9 46.095C1031.76 46.3618 1031.49 46.5172 1031.21 46.5172V46.5146Z" fill="white"/>
<path d="M1135.62 34.413C1159.39 58.1721 1159.39 96.6931 1135.62 120.452C1111.85 144.211 1073.31 144.211 1049.54 120.452C1025.77 96.6932 1025.77 58.1721 1049.54 34.413C1073.31 10.6539 1111.85 10.6539 1135.62 34.413Z" fill="white" stroke="#1A1A18"/>
<path d="M1104.73 53.8462L1107.65 56.5435L1096.95 68.1387L1094.03 65.4415L1104.73 53.8462Z" fill="#72B6D3" stroke="#1A1A18"/>
<path d="M1076 90.8288L1073.08 88.1315L1083.78 76.5363L1086.7 79.2336L1076 90.8288Z" fill="#72B6D3" stroke="#1A1A18"/>
<path d="M1127.92 34.9386L1135.01 41.478L1128.47 48.5696L1121.38 42.0302L1127.92 34.9386Z" fill="#72B6D3" stroke="#1A1A18"/>
<path d="M1118.81 26.5455L1125.91 33.0849L1119.37 40.1765L1112.27 33.6371L1118.81 26.5455Z" fill="#72B6D3" stroke="#1A1A18"/>
<path d="M1119.09 44.5117L1126.18 51.0511L1119.64 58.1427L1112.54 51.6033L1119.09 44.5117Z" fill="#72B6D3" stroke="#1A1A18"/>
<path d="M1109.98 36.1187L1117.08 42.658L1110.54 49.7496L1103.44 43.2102L1109.98 36.1187Z" fill="#72B6D3" stroke="#1A1A18"/>
<path d="M1110.25 54.0833L1117.35 60.6226L1110.8 67.7142L1103.71 61.1748L1110.25 54.0833Z" fill="#72B6D3" stroke="#1A1A18"/>
<path d="M1101.15 45.6902L1108.24 52.2296L1101.7 59.3211L1094.61 52.7818L1101.15 45.6902Z" fill="#72B6D3" stroke="#1A1A18"/>
<path d="M1080.3 86.5411L1087.4 93.0805L1080.85 100.172L1073.76 93.6327L1080.3 86.5411Z" fill="#72B6D3" stroke="#1A1A18"/>
<path d="M1071.2 78.1481L1078.29 84.6874L1071.75 91.779L1064.65 85.2397L1071.2 78.1481Z" fill="#72B6D3" stroke="#1A1A18"/>
<path d="M1071.47 96.1144L1078.56 102.654L1072.02 109.745L1064.93 103.206L1071.47 96.1144Z" fill="#72B6D3" stroke="#1A1A18"/>
<path d="M1062.36 87.7212L1069.46 94.2606L1062.92 101.352L1055.82 94.8128L1062.36 87.7212Z" fill="#72B6D3" stroke="#1A1A18"/>
<path d="M1062.64 105.686L1069.73 112.225L1063.19 119.317L1056.09 112.777L1062.64 105.686Z" fill="#72B6D3" stroke="#1A1A18"/>
<path d="M1053.53 97.2927L1060.63 103.832L1054.08 110.924L1046.99 104.384L1053.53 97.2927Z" fill="#72B6D3" stroke="#1A1A18"/>
<path d="M1076.23 43.9229L1111.51 76.4421L1096.16 93.0836L1060.88 60.5644L1076.23 43.9229Z" fill="#72B6D3" stroke="#1A1A18"/>
<path d="M1112.95 92.1646L1124.14 102.478L1123.14 103.557L1111.95 93.2444L1112.95 92.1646Z" fill="#72B6D3" stroke="#1A1A18"/>
<path d="M1108.06 107.809C1102.68 102.494 1102.45 93.8373 1107.61 88.2392L1107.61 88.2392C1112.78 82.641 1121.43 82.1758 1127.16 87.101L1108.06 107.809Z" fill="#72B6D3" stroke="#1A1A18"/>
<path d="M1122.53 105.869C1121.37 104.803 1121.3 102.998 1122.37 101.841C1123.44 100.684 1125.24 100.611 1126.4 101.678C1127.56 102.744 1127.63 104.549 1126.56 105.706C1125.5 106.863 1123.69 106.936 1122.53 105.869Z" fill="#72B6D3" stroke="#1A1A18"/>
</g>
<g clip-path="url(#clip1_764_135)">
<path d="M128.034 128.864C157.324 99.5882 157.324 52.122 128.034 22.8458C98.7445 -6.43043 51.2564 -6.43044 21.9665 22.8458C-7.32329 52.122 -7.32329 99.5882 21.9665 128.864C51.2564 158.141 98.7445 158.141 128.034 128.864Z" fill="#72B6D3"/>
<path d="M126.27 127.101C154.585 98.7985 154.585 52.9117 126.27 24.6097C97.9544 -3.69242 52.0464 -3.69241 23.7312 24.6097C-4.58407 52.9117 -4.58407 98.7985 23.7312 127.101C52.0464 155.403 97.9544 155.403 126.27 127.101Z" fill="#72B6D3"/>
<path d="M8.16305 73.0705C8.15009 73.0705 8.13455 73.0705 8.12159 73.0705C7.69917 73.0472 7.37523 72.6872 7.39596 72.265C7.54368 69.4182 7.87539 66.5585 8.38074 63.7661C8.45589 63.3517 8.8524 63.0745 9.26963 63.1496C9.68687 63.2247 9.96157 63.6236 9.88642 64.0407C9.39403 66.7709 9.07009 69.5658 8.92496 72.3478C8.90423 72.7571 8.56474 73.0731 8.16046 73.0731L8.16305 73.0705Z" fill="white"/>
<path d="M15.2121 46.5146C15.0955 46.5146 14.9789 46.4887 14.8674 46.4317C14.4891 46.24 14.3388 45.7816 14.5279 45.4034C26.1224 22.448 49.2932 8.18823 75.0012 8.18823C79.1009 8.18823 83.2085 8.55865 87.2124 9.28653C87.6297 9.36165 87.9044 9.76056 87.8292 10.1776C87.754 10.5946 87.3549 10.8718 86.9377 10.7941C83.0245 10.0818 79.0077 9.7217 75.0012 9.7217C49.8737 9.7217 27.2264 23.6602 15.8963 46.095C15.7615 46.3618 15.492 46.5172 15.2121 46.5172V46.5146Z" fill="white"/>
<path d="M119.619 34.413C143.389 58.1721 143.389 96.6931 119.619 120.452C95.8489 144.211 57.3099 144.211 33.5398 120.452C9.76971 96.6931 9.76971 58.1721 33.5398 34.413C57.3099 10.6539 95.8489 10.6539 119.619 34.413Z" fill="white" stroke="#1A1A18"/>
<path d="M97.7729 50.5807L106.968 50.8003V105.824L97.7729 105.71V50.5807Z" fill="#72B6D3" stroke="#1A1A18"/>
<path d="M79.5469 78.3148L88.8171 78.4832V105.601L79.5469 105.487V78.3148Z" fill="#72B6D3" stroke="#1A1A18"/>
<path d="M61.1777 44.3437L70.5257 44.5777V105.376L61.1777 105.259V44.3437Z" fill="#72B6D3" stroke="#1A1A18"/>
<path d="M42.6719 53.1007L52.0976 53.3185V105.148L42.6719 105.031V53.1007Z" fill="#72B6D3" stroke="#1A1A18"/>
</g>
<g clip-path="url(#clip2_764_135)">
<path d="M382.034 248.809C411.324 219.533 411.324 172.066 382.034 142.79C352.745 113.514 305.256 113.514 275.967 142.79C246.677 172.066 246.677 219.533 275.967 248.809C305.256 278.085 352.745 278.085 382.034 248.809Z" fill="#72B6D3"/>
<path d="M380.27 247.045C408.585 218.743 408.585 172.856 380.27 144.554C351.954 116.252 306.046 116.252 277.731 144.554C249.416 172.856 249.416 218.743 277.731 247.045C306.046 275.347 351.954 275.347 380.27 247.045Z" fill="#72B6D3"/>
<path d="M262.163 193.015C262.15 193.015 262.135 193.015 262.122 193.015C261.699 192.992 261.375 192.631 261.396 192.209C261.544 189.362 261.875 186.503 262.381 183.71C262.456 183.293 262.852 183.019 263.27 183.094C263.687 183.169 263.962 183.568 263.886 183.985C263.394 186.715 263.07 189.51 262.925 192.292C262.904 192.701 262.565 193.017 262.16 193.017L262.163 193.015Z" fill="white"/>
<path d="M269.212 166.459C269.095 166.459 268.979 166.433 268.867 166.376C268.489 166.184 268.339 165.726 268.528 165.348C280.122 142.392 303.293 128.133 329.001 128.133C333.101 128.133 337.209 128.503 341.212 129.231C341.63 129.306 341.904 129.705 341.829 130.122C341.754 130.539 341.355 130.816 340.938 130.738C337.025 130.026 333.008 129.666 329.001 129.666C303.874 129.666 281.226 143.605 269.896 166.039C269.762 166.306 269.492 166.462 269.212 166.462V166.459Z" fill="white"/>
<path d="M373.619 154.357C397.389 178.116 397.389 216.637 373.619 240.397C349.849 264.156 311.31 264.156 287.54 240.397C263.77 216.637 263.77 178.116 287.54 154.357C311.31 130.598 349.849 130.598 373.619 154.357Z" fill="white" stroke="#1A1A18"/>
<path d="M356.7 186.949C356.7 190.005 355.656 193.704 353.938 197.707C352.223 201.703 349.853 205.962 347.242 210.127C342.02 218.458 335.856 226.377 332.094 231.007C330.487 232.972 327.513 232.972 325.906 231.007C322.144 226.377 315.979 218.458 310.757 210.127C308.146 205.962 305.777 201.703 304.062 197.707C302.343 193.704 301.3 190.005 301.3 186.949C301.3 171.922 313.699 159.715 329 159.715C344.3 159.715 356.7 171.922 356.7 186.949ZM335.997 180.056C334.14 178.229 331.623 177.204 329 177.204C326.377 177.204 323.86 178.229 322.002 180.056C320.145 181.883 319.1 184.362 319.1 186.949C319.1 189.536 320.145 192.016 322.002 193.843C323.86 195.669 326.377 196.694 329 196.694C331.623 196.694 334.14 195.669 335.997 193.843C337.855 192.016 338.9 189.536 338.9 186.949C338.9 184.362 337.855 181.883 335.997 180.056Z" fill="#72B6D3" stroke="#1A1A18"/>
</g>
<g clip-path="url(#clip3_764_135)">
<path d="M890.034 257.804C919.324 228.528 919.324 181.062 890.034 151.786C860.745 122.51 813.256 122.51 783.967 151.786C754.677 181.062 754.677 228.528 783.967 257.804C813.256 287.081 860.745 287.081 890.034 257.804Z" fill="#72B6D3"/>
<path d="M888.27 256.04C916.585 227.738 916.585 181.852 888.27 153.55C859.954 125.248 814.046 125.248 785.731 153.55C757.416 181.852 757.416 227.738 785.731 256.04C814.046 284.343 859.954 284.343 888.27 256.04Z" fill="#72B6D3"/>
<path d="M770.163 202.01C770.15 202.01 770.135 202.01 770.122 202.01C769.699 201.987 769.375 201.627 769.396 201.205C769.544 198.358 769.875 195.498 770.381 192.706C770.456 192.292 770.852 192.014 771.27 192.09C771.687 192.165 771.962 192.564 771.886 192.978C771.394 195.708 771.07 198.503 770.925 201.285C770.904 201.694 770.565 202.01 770.16 202.01H770.163Z" fill="white"/>
<path d="M777.212 175.455C777.095 175.455 776.979 175.429 776.867 175.372C776.489 175.18 776.339 174.722 776.528 174.343C788.122 151.388 811.293 137.128 837.001 137.128C841.101 137.128 845.209 137.499 849.212 138.226C849.63 138.302 849.904 138.7 849.829 139.118C849.754 139.535 849.355 139.812 848.938 139.734C845.025 139.022 841.008 138.662 837.001 138.662C811.874 138.662 789.226 152.6 777.896 175.035C777.762 175.302 777.492 175.457 777.212 175.457V175.455Z" fill="white"/>
<path d="M881.619 163.353C905.389 187.112 905.389 225.633 881.619 249.392C857.849 273.151 819.31 273.151 795.54 249.392C771.77 225.633 771.77 187.112 795.54 163.353C819.31 139.594 857.849 139.594 881.619 163.353Z" fill="white" stroke="#1A1A18"/>
<path d="M814.736 219.953L792.366 220.675C792.757 210.36 796.209 200.85 801.788 192.923L819.316 205.566C816.63 209.745 814.971 214.545 814.736 219.953Z" fill="#72B6D3" stroke="#1A1A18"/>
<path d="M821.537 202.522L804.089 189.875C810.107 182.51 817.993 176.928 826.811 173.915L832.56 194.44C828.306 196.165 824.52 198.965 821.537 202.522Z" fill="#72B6D3" stroke="#1A1A18"/>
<path d="M835.995 193.309L830.293 172.871C834.405 171.811 838.679 171.306 843.028 171.426L843.028 171.426C847.614 171.552 851.974 172.365 856.027 173.757L849.528 193.526C847.296 192.861 844.916 192.501 842.433 192.499H842.433C840.23 192.499 838.074 192.779 835.995 193.309Z" fill="#72B6D3" stroke="#1A1A18"/>
<path d="M859.251 175.01C866.704 178.261 872.986 183.548 877.533 190.151L861.803 202.024C859.431 198.922 856.352 196.417 852.777 194.759L859.251 175.01Z" fill="#72B6D3" stroke="#1A1A18"/>
<path d="M879.365 193.073C883.486 200.16 885.778 208.532 885.611 217.666L867.065 218.266C867.116 213.229 865.891 208.793 863.712 204.938L879.365 193.073Z" fill="#72B6D3" stroke="#1A1A18"/>
<path d="M846.011 217.893L839.811 212.038L852.292 204.145L846.011 217.893Z" fill="#72B6D3" stroke="#1A1A18"/>
<path d="M841.565 223.293L841.564 223.293C838.138 223.421 835.396 220.647 835.495 217.043C835.595 213.42 838.529 210.444 841.977 210.375L841.977 210.375C845.368 210.306 848.039 213.083 847.943 216.627C847.844 220.192 844.981 223.166 841.565 223.293Z" fill="#72B6D3" stroke="#1A1A18"/>
<path d="M841.658 221.062C839.398 221.14 837.605 219.296 837.67 216.951C837.734 214.607 839.634 212.657 841.891 212.605C844.138 212.551 845.903 214.395 845.838 216.716C845.773 219.037 843.902 220.985 841.655 221.062H841.658ZM841.868 213.429C840.051 213.473 838.525 215.042 838.473 216.928C838.421 218.811 839.862 220.296 841.681 220.236C843.49 220.176 844.999 218.607 845.05 216.736C845.102 214.866 843.679 213.382 841.871 213.426L841.868 213.429Z" fill="#72B6D3"/>
</g>
<g clip-path="url(#clip4_764_135)">
<path d="M557.363 91.6657C571.635 79.8191 593.438 81.1622 605.964 94.6578C606.739 95.4953 607.458 96.3587 608.124 97.2482C609.018 98.4434 610.844 98.5534 611.846 97.4341L615.12 93.7764C615.835 92.9789 615.851 91.8216 615.186 90.9861C614.554 90.1946 613.89 89.4191 613.188 88.6615C597.166 71.4003 569.278 69.6834 551.024 84.8339C549.642 85.9812 548.359 87.1965 547.169 88.4677C546.277 89.4191 546.393 90.8782 547.437 91.6777L551.274 94.6218C552.244 95.3674 553.658 95.2594 554.489 94.376C555.378 93.4306 556.334 92.5211 557.367 91.6637L557.363 91.6657Z" fill="#72B6D3"/>
<path d="M540.984 74.0207C565.546 53.6355 603.064 55.944 624.623 79.1695C624.63 79.1755 624.636 79.1835 624.643 79.1895C625.585 80.2069 627.253 80.2149 628.177 79.1815L631.387 75.5937C631.379 74.4844 631.373 73.7689 631.364 72.6596C606.236 46.1521 563.007 43.6537 534.645 67.193C532.17 69.2477 529.9 71.4403 527.818 73.7409C526.97 74.6763 527.135 76.0974 528.146 76.8749L531.971 79.8131C532.946 80.5606 534.381 80.4587 535.199 79.5593C536.966 77.6165 538.89 75.7616 540.984 74.0247V74.0207Z" fill="#72B6D3"/>
<path d="M524.605 56.3757C558.547 28.2033 609.925 30.5938 640.84 61.1867C641.81 62.1461 643.435 62.1281 644.342 61.1128L647.528 57.551C648.301 56.6855 648.272 55.3964 647.441 54.5809C612.958 20.808 555.964 18.2555 518.266 49.546C514.726 52.4862 511.494 55.6322 508.541 58.9401C507.7 59.8815 507.863 61.3027 508.875 62.0802L512.697 65.0143C513.694 65.7799 515.14 65.632 515.969 64.7045C518.594 61.7744 521.464 58.9841 524.605 56.3757Z" fill="#72B6D3"/>
<path d="M586.183 124.103C594.647 121.538 599.309 112.97 596.597 104.966C593.884 96.9619 584.823 92.5529 576.359 95.1181C567.895 97.6832 563.232 106.251 565.945 114.255C568.658 122.259 577.718 126.668 586.183 124.103Z" fill="#72B6D3"/>
<path d="M615.626 91.6133C602.918 77.9217 580.815 76.5626 566.342 88.5746L566.342 88.5745C565.291 89.4463 564.321 90.37 563.418 91.3289L563.418 91.3291C562.766 92.0226 561.641 92.1123 560.872 91.521L560.872 91.5208L557.035 88.5767L557.035 88.5763C556.226 87.9571 556.139 86.8411 556.828 86.1049C558.004 84.8486 559.271 83.6478 560.637 82.5143L560.637 82.5143C578.689 67.5314 606.276 69.2329 622.115 86.297C622.808 87.0449 623.463 87.8109 624.088 88.5934C624.606 89.2435 624.588 90.1278 624.041 90.7384L624.041 90.7386L620.769 94.3963C620.769 94.3963 620.769 94.3963 620.769 94.3964C619.984 95.273 618.531 95.1946 617.82 94.2443L617.82 94.2442C617.143 93.3408 616.414 92.464 615.626 91.6137L615.626 91.6133Z" fill="white" stroke="#1A1A18"/>
<path d="M549.96 70.9316L549.78 71.0816V71.0861C547.736 72.7951 545.856 74.6153 544.125 76.5185L544.124 76.5189C543.49 77.2184 542.349 77.309 541.571 76.7121L537.746 73.7743C537.746 73.7743 537.746 73.7743 537.746 73.7742C536.953 73.1636 536.844 72.0781 537.484 71.3723L537.484 71.3721C539.551 69.0884 541.804 66.9124 544.26 64.8734C572.37 41.5429 615.197 43.9759 640.161 70.1566C640.165 70.6244 640.168 71.0254 640.171 71.4264C640.174 71.8285 640.178 72.2305 640.181 72.7L637.099 76.1437L637.099 76.1439C636.378 76.951 635.053 76.9531 634.305 76.1453L634.293 76.1331L634.291 76.1312L634.288 76.1274C634.286 76.1249 634.283 76.1218 634.279 76.1182C612.536 52.7023 574.721 50.3809 549.96 70.9316ZM634.299 76.1393L634.297 76.1378C634.299 76.14 634.301 76.1417 634.299 76.1393Z" fill="white" stroke="#1A1A18"/>
<path d="M533.581 53.2869L533.581 53.2868C567.723 24.9505 619.391 27.3528 650.487 58.1271C651.263 58.8942 652.557 58.868 653.265 58.0755L653.265 58.0752L656.45 54.5136C657.049 53.8435 657.023 52.8584 656.386 52.2334C622.088 18.6405 565.382 16.0996 527.881 47.2265C524.36 50.1501 521.146 53.2788 518.209 56.5689L518.209 56.5691C517.572 57.2827 517.681 58.3698 518.475 58.9794L533.581 53.2869ZM533.581 53.2869C530.421 55.9116 527.533 58.719 524.892 61.6667L524.891 61.6672C524.235 62.4016 523.084 62.5179 522.297 61.9135C522.296 61.9135 522.296 61.9135 522.296 61.9134L518.475 58.9794L533.581 53.2869Z" fill="white" stroke="#1A1A18"/>
<path d="M605.492 102.626C607.978 110.387 603.345 118.622 595.083 120.989C586.82 123.355 578.134 118.934 575.648 111.174C573.163 103.413 577.795 95.1773 586.058 92.8109C594.32 90.4445 603.007 94.8657 605.492 102.626Z" fill="white" stroke="black"/>
</g>
<defs>
<clipPath id="clip0_764_135">
<rect width="150" height="149.93" fill="white" transform="translate(1016 0.888672)"/>
</clipPath>
<clipPath id="clip1_764_135">
<rect width="150" height="149.93" fill="white" transform="translate(0 0.888672)"/>
</clipPath>
<clipPath id="clip2_764_135">
<rect width="150" height="149.93" fill="white" transform="translate(254 120.833)"/>
</clipPath>
<clipPath id="clip3_764_135">
<rect width="150" height="149.93" fill="white" transform="translate(762 129.829)"/>
</clipPath>
<clipPath id="clip4_764_135">
<rect width="150" height="99.9536" fill="white" transform="translate(508 24.8774)"/>
</clipPath>
</defs>
</svg>
