<svg width="864" height="425" viewBox="0 0 864 425" fill="none" xmlns="http://www.w3.org/2000/svg">
<path d="M726.124 290.331C677.623 193.57 606.315 179.387 527.182 214.534" stroke="#1A1A18" stroke-width="3" stroke-linecap="round" stroke-dasharray="10 10"/>
<path d="M305.131 202.069C378.101 282.01 450.579 276.282 517.185 220.954" stroke="#1A1A18" stroke-width="3" stroke-linecap="round" stroke-dasharray="10 10"/>
<path d="M299.332 188.921C259.364 88.3341 189.547 68.0489 107.675 96.2335" stroke="#1A1A18" stroke-width="3" stroke-linecap="round" stroke-dasharray="10 10"/>
<g clip-path="url(#clip0_764_1580)">
<path d="M842.035 368.976C871.324 339.7 871.324 292.233 842.035 262.957C812.745 233.681 765.257 233.681 735.967 262.957C706.677 292.233 706.677 339.7 735.967 368.976C765.257 398.252 812.745 398.252 842.035 368.976Z" fill="#72B6D3"/>
<path d="M840.27 367.212C868.585 338.91 868.585 293.023 840.27 264.721C811.955 236.419 766.047 236.419 737.731 264.721C709.416 293.023 709.416 338.91 737.731 367.212C766.047 395.514 811.955 395.514 840.27 367.212Z" fill="#72B6D3"/>
<path d="M722.163 313.182C722.15 313.182 722.135 313.182 722.122 313.182C721.699 313.159 721.375 312.799 721.396 312.376C721.544 309.53 721.876 306.67 722.381 303.877C722.456 303.46 722.853 303.186 723.27 303.261C723.687 303.336 723.962 303.735 723.887 304.149C723.394 306.88 723.07 309.675 722.925 312.457C722.904 312.866 722.565 313.182 722.161 313.182H722.163Z" fill="white"/>
<path d="M729.212 286.626C729.096 286.626 728.979 286.6 728.868 286.543C728.489 286.351 728.339 285.893 728.528 285.515C740.123 262.559 763.293 248.299 789.001 248.299C793.101 248.299 797.209 248.67 801.213 249.398C801.63 249.473 801.904 249.872 801.829 250.289C801.754 250.706 801.355 250.983 800.938 250.905C797.025 250.193 793.008 249.833 789.001 249.833C763.874 249.833 741.227 263.771 729.896 286.206C729.762 286.473 729.492 286.628 729.212 286.628V286.626Z" fill="white"/>
<path d="M833.619 274.524C857.389 298.283 857.389 336.805 833.619 360.564C809.849 384.323 771.31 384.323 747.54 360.564C723.77 336.805 723.77 298.283 747.54 274.524C771.31 250.765 809.849 250.765 833.619 274.524Z" fill="white" stroke="#1A1A18"/>
<path d="M802.726 293.958L805.652 296.655L794.955 308.25L792.028 305.553L802.726 293.958Z" fill="#72B6D3" stroke="#1A1A18"/>
<path d="M774.005 330.94L771.078 328.243L781.776 316.648L784.702 319.345L774.005 330.94Z" fill="#72B6D3" stroke="#1A1A18"/>
<path d="M825.918 275.05L833.012 281.589L826.47 288.681L819.375 282.142L825.918 275.05Z" fill="#72B6D3" stroke="#1A1A18"/>
<path d="M816.814 266.657L823.909 273.196L817.367 280.288L810.272 273.748L816.814 266.657Z" fill="#72B6D3" stroke="#1A1A18"/>
<path d="M817.085 284.623L824.18 291.162L817.638 298.254L810.543 291.715L817.085 284.623Z" fill="#72B6D3" stroke="#1A1A18"/>
<path d="M807.982 276.23L815.077 282.769L808.535 289.861L801.44 283.322L807.982 276.23Z" fill="#72B6D3" stroke="#1A1A18"/>
<path d="M808.251 294.195L815.346 300.734L808.804 307.825L801.709 301.286L808.251 294.195Z" fill="#72B6D3" stroke="#1A1A18"/>
<path d="M799.148 285.801L806.243 292.341L799.701 299.432L792.606 292.893L799.148 285.801Z" fill="#72B6D3" stroke="#1A1A18"/>
<path d="M778.302 326.652L785.397 333.192L778.855 340.283L771.76 333.744L778.302 326.652Z" fill="#72B6D3" stroke="#1A1A18"/>
<path d="M769.197 318.259L776.291 324.799L769.749 331.89L762.654 325.351L769.197 318.259Z" fill="#72B6D3" stroke="#1A1A18"/>
<path d="M769.47 336.226L776.565 342.765L770.023 349.857L762.928 343.317L769.47 336.226Z" fill="#72B6D3" stroke="#1A1A18"/>
<path d="M760.364 327.833L767.459 334.372L760.917 341.463L753.822 334.924L760.364 327.833Z" fill="#72B6D3" stroke="#1A1A18"/>
<path d="M760.636 345.797L767.731 352.336L761.189 359.428L754.094 352.889L760.636 345.797Z" fill="#72B6D3" stroke="#1A1A18"/>
<path d="M751.53 337.404L758.625 343.943L752.083 351.035L744.988 344.496L751.53 337.404Z" fill="#72B6D3" stroke="#1A1A18"/>
<path d="M774.233 284.034L809.515 316.553L794.162 333.195L758.881 300.676L774.233 284.034Z" fill="#72B6D3" stroke="#1A1A18"/>
<path d="M810.948 332.276L822.137 342.589L821.141 343.669L809.952 333.356L810.948 332.276Z" fill="#72B6D3" stroke="#1A1A18"/>
<path d="M806.057 347.92C800.682 342.605 800.448 333.949 805.612 328.351L805.612 328.35C810.78 322.752 819.431 322.287 825.163 327.212L806.057 347.92Z" fill="#72B6D3" stroke="#1A1A18"/>
<path d="M820.532 345.981C819.374 344.914 819.302 343.109 820.369 341.952C821.436 340.795 823.242 340.722 824.4 341.789C825.557 342.856 825.63 344.661 824.563 345.818C823.496 346.975 821.689 347.047 820.532 345.981Z" fill="#72B6D3" stroke="#1A1A18"/>
</g>
<g clip-path="url(#clip1_764_1580)">
<path d="M128.035 205.976C157.324 176.7 157.324 129.233 128.035 99.9572C98.7447 70.681 51.2565 70.681 21.9667 99.9572C-7.32311 129.233 -7.32311 176.7 21.9667 205.976C51.2565 235.252 98.7447 235.252 128.035 205.976Z" fill="#72B6D3"/>
<path d="M126.27 204.212C154.585 175.91 154.585 130.023 126.27 101.721C97.9546 73.419 52.0466 73.419 23.7314 101.721C-4.58383 130.023 -4.58383 175.91 23.7314 204.212C52.0466 232.514 97.9546 232.514 126.27 204.212Z" fill="#72B6D3"/>
<path d="M8.1633 150.182C8.15034 150.182 8.13479 150.182 8.12183 150.182C7.69941 150.159 7.37547 149.799 7.39621 149.376C7.54392 146.53 7.87564 143.67 8.38098 140.878C8.45614 140.463 8.85264 140.186 9.26988 140.261C9.68711 140.336 9.96181 140.735 9.88666 141.152C9.39427 143.882 9.07033 146.677 8.9252 149.459C8.90447 149.869 8.56498 150.185 8.16071 150.185L8.1633 150.182Z" fill="white"/>
<path d="M15.2122 123.626C15.0956 123.626 14.979 123.6 14.8676 123.543C14.4892 123.351 14.3389 122.893 14.5281 122.515C26.1225 99.5593 49.2934 85.2996 75.0013 85.2996C79.1011 85.2996 83.2086 85.67 87.2125 86.3979C87.6298 86.473 87.9045 86.8719 87.8293 87.289C87.7542 87.706 87.3551 87.9832 86.9378 87.9055C83.0246 87.1931 79.0078 86.8331 75.0013 86.8331C49.8739 86.8331 27.2265 100.772 15.8964 123.206C15.7616 123.473 15.4921 123.629 15.2122 123.629V123.626Z" fill="white"/>
<path d="M119.619 111.524C143.389 135.284 143.389 173.805 119.619 197.564C95.849 221.323 57.31 221.323 33.5399 197.564C9.76984 173.805 9.76984 135.284 33.5399 111.524C57.31 87.7654 95.849 87.7654 119.619 111.524Z" fill="white" stroke="#1A1A18"/>
<path d="M97.7729 127.692L106.968 127.912V182.935L97.7729 182.821V127.692Z" fill="#72B6D3" stroke="#1A1A18"/>
<path d="M79.5467 155.426L88.8169 155.595V182.713L79.5467 182.598V155.426Z" fill="#72B6D3" stroke="#1A1A18"/>
<path d="M61.1779 121.455L70.5259 121.689V182.487L61.1779 182.37V121.455Z" fill="#72B6D3" stroke="#1A1A18"/>
<path d="M42.6719 130.212L52.0976 130.43V182.259L42.6719 182.142V130.212Z" fill="#72B6D3" stroke="#1A1A18"/>
</g>
<defs>
<clipPath id="clip0_764_1580">
<rect width="150" height="149.93" fill="white" transform="translate(714 241)"/>
</clipPath>
<clipPath id="clip1_764_1580">
<rect width="150" height="149.93" fill="white" transform="translate(0 78.0001)"/>
</clipPath>
</defs>
</svg>
