<svg width="1462" height="425" viewBox="0 0 1462 425" fill="none" xmlns="http://www.w3.org/2000/svg">
<path d="M1314.25 117.059C1275.38 16.0443 1205.78 -4.99731 1123.61 22.2971" stroke="#1A1A18" stroke-width="3" stroke-linecap="round" stroke-dasharray="10 10"/>
<path d="M1110.54 27C1011.01 69.5305 992.52 139.845 1022.79 220.968" stroke="#1A1A18" stroke-width="3" stroke-linecap="round" stroke-dasharray="10 10"/>
<path d="M916.779 414.793C1020.79 384.832 1047.79 317.327 1027.73 233.096" stroke="#1A1A18" stroke-width="3" stroke-linecap="round" stroke-dasharray="10 10"/>
<path d="M727.935 301.671C754.335 406.639 820.881 435.924 905.747 418.745" stroke="#1A1A18" stroke-width="3" stroke-linecap="round" stroke-dasharray="10 10"/>
<path d="M726.124 290.331C677.623 193.57 606.315 179.387 527.182 214.534" stroke="#1A1A18" stroke-width="3" stroke-linecap="round" stroke-dasharray="10 10"/>
<path d="M305.131 202.069C378.101 282.01 450.579 276.282 517.185 220.954" stroke="#1A1A18" stroke-width="3" stroke-linecap="round" stroke-dasharray="10 10"/>
<path d="M299.332 188.921C259.364 88.3339 189.547 68.0488 107.675 96.2334" stroke="#1A1A18" stroke-width="3" stroke-linecap="round" stroke-dasharray="10 10"/>
<g clip-path="url(#clip0_764_137)">
<path d="M1440.03 205.976C1469.32 176.7 1469.32 129.233 1440.03 99.9571C1410.74 70.6809 1363.26 70.6809 1333.97 99.9571C1304.68 129.233 1304.68 176.7 1333.97 205.976C1363.26 235.252 1410.74 235.252 1440.03 205.976Z" fill="#72B6D3"/>
<path d="M1438.27 204.212C1466.58 175.91 1466.58 130.023 1438.27 101.721C1409.95 73.4189 1364.05 73.4189 1335.73 101.721C1307.42 130.023 1307.42 175.91 1335.73 204.212C1364.05 232.514 1409.95 232.514 1438.27 204.212Z" fill="#72B6D3"/>
<path d="M1320.16 150.182C1320.15 150.182 1320.13 150.182 1320.12 150.182C1319.7 150.159 1319.38 149.798 1319.4 149.376C1319.54 146.529 1319.88 143.67 1320.38 140.877C1320.46 140.46 1320.85 140.186 1321.27 140.261C1321.69 140.336 1321.96 140.735 1321.89 141.149C1321.39 143.88 1321.07 146.675 1320.92 149.457C1320.9 149.866 1320.56 150.182 1320.16 150.182H1320.16Z" fill="white"/>
<path d="M1327.21 123.626C1327.1 123.626 1326.98 123.6 1326.87 123.543C1326.49 123.351 1326.34 122.893 1326.53 122.515C1338.12 99.5593 1361.29 85.2996 1387 85.2996C1391.1 85.2996 1395.21 85.67 1399.21 86.3979C1399.63 86.473 1399.9 86.8719 1399.83 87.2889C1399.75 87.706 1399.35 87.9831 1398.94 87.9054C1395.02 87.1931 1391.01 86.833 1387 86.833C1361.87 86.833 1339.23 100.772 1327.9 123.206C1327.76 123.473 1327.49 123.629 1327.21 123.629V123.626Z" fill="white"/>
<path d="M1431.62 111.524C1455.39 135.283 1455.39 173.804 1431.62 197.564C1407.85 221.323 1369.31 221.323 1345.54 197.564C1321.77 173.804 1321.77 135.283 1345.54 111.524C1369.31 87.7653 1407.85 87.7653 1431.62 111.524Z" fill="white" stroke="#1A1A18"/>
<path d="M1400.73 130.958L1403.65 133.655L1392.95 145.25L1390.03 142.553L1400.73 130.958Z" fill="#72B6D3" stroke="#1A1A18"/>
<path d="M1372 167.94L1369.08 165.243L1379.78 153.648L1382.7 156.345L1372 167.94Z" fill="#72B6D3" stroke="#1A1A18"/>
<path d="M1423.92 112.05L1431.01 118.589L1424.47 125.681L1417.38 119.142L1423.92 112.05Z" fill="#72B6D3" stroke="#1A1A18"/>
<path d="M1414.81 103.657L1421.91 110.196L1415.37 117.288L1408.27 110.748L1414.81 103.657Z" fill="#72B6D3" stroke="#1A1A18"/>
<path d="M1415.09 121.623L1422.18 128.162L1415.64 135.254L1408.54 128.715L1415.09 121.623Z" fill="#72B6D3" stroke="#1A1A18"/>
<path d="M1405.98 113.23L1413.08 119.769L1406.53 126.861L1399.44 120.322L1405.98 113.23Z" fill="#72B6D3" stroke="#1A1A18"/>
<path d="M1406.25 131.195L1413.35 137.734L1406.8 144.826L1399.71 138.286L1406.25 131.195Z" fill="#72B6D3" stroke="#1A1A18"/>
<path d="M1397.15 122.802L1404.24 129.341L1397.7 136.432L1390.61 129.893L1397.15 122.802Z" fill="#72B6D3" stroke="#1A1A18"/>
<path d="M1376.3 163.652L1383.4 170.192L1376.85 177.283L1369.76 170.744L1376.3 163.652Z" fill="#72B6D3" stroke="#1A1A18"/>
<path d="M1367.2 155.259L1374.29 161.799L1367.75 168.89L1360.65 162.351L1367.2 155.259Z" fill="#72B6D3" stroke="#1A1A18"/>
<path d="M1367.47 173.226L1374.56 179.765L1368.02 186.857L1360.93 180.317L1367.47 173.226Z" fill="#72B6D3" stroke="#1A1A18"/>
<path d="M1358.36 164.833L1365.46 171.372L1358.92 178.463L1351.82 171.924L1358.36 164.833Z" fill="#72B6D3" stroke="#1A1A18"/>
<path d="M1358.64 182.797L1365.73 189.336L1359.19 196.428L1352.09 189.889L1358.64 182.797Z" fill="#72B6D3" stroke="#1A1A18"/>
<path d="M1349.53 174.404L1356.63 180.943L1350.08 188.035L1342.99 181.496L1349.53 174.404Z" fill="#72B6D3" stroke="#1A1A18"/>
<path d="M1372.23 121.034L1407.52 153.553L1392.16 170.195L1356.88 137.676L1372.23 121.034Z" fill="#72B6D3" stroke="#1A1A18"/>
<path d="M1408.95 169.276L1420.14 179.589L1419.14 180.669L1407.95 170.356L1408.95 169.276Z" fill="#72B6D3" stroke="#1A1A18"/>
<path d="M1404.06 184.92C1398.68 179.605 1398.45 170.949 1403.61 165.351L1403.61 165.35C1408.78 159.752 1417.43 159.287 1423.16 164.212L1404.06 184.92Z" fill="#72B6D3" stroke="#1A1A18"/>
<path d="M1418.53 182.981C1417.37 181.914 1417.3 180.109 1418.37 178.952C1419.44 177.795 1421.24 177.722 1422.4 178.789C1423.56 179.856 1423.63 181.661 1422.56 182.818C1421.5 183.975 1419.69 184.047 1418.53 182.981Z" fill="#72B6D3" stroke="#1A1A18"/>
</g>
<g clip-path="url(#clip1_764_137)">
<path d="M128.034 205.976C157.324 176.7 157.324 129.233 128.034 99.9571C98.7445 70.6809 51.2564 70.6809 21.9665 99.9571C-7.32329 129.233 -7.32329 176.7 21.9665 205.976C51.2564 235.252 98.7445 235.252 128.034 205.976Z" fill="#72B6D3"/>
<path d="M126.27 204.212C154.585 175.91 154.585 130.023 126.27 101.721C97.9544 73.4189 52.0464 73.4189 23.7312 101.721C-4.58407 130.023 -4.58407 175.91 23.7312 204.212C52.0464 232.514 97.9544 232.514 126.27 204.212Z" fill="#72B6D3"/>
<path d="M8.16305 150.182C8.15009 150.182 8.13455 150.182 8.12159 150.182C7.69917 150.159 7.37523 149.799 7.39596 149.376C7.54368 146.53 7.87539 143.67 8.38074 140.877C8.45589 140.463 8.8524 140.186 9.26963 140.261C9.68687 140.336 9.96157 140.735 9.88642 141.152C9.39403 143.882 9.07009 146.677 8.92496 149.459C8.90423 149.868 8.56474 150.184 8.16046 150.184L8.16305 150.182Z" fill="white"/>
<path d="M15.2121 123.626C15.0955 123.626 14.9789 123.6 14.8674 123.543C14.4891 123.351 14.3388 122.893 14.5279 122.515C26.1224 99.5593 49.2932 85.2996 75.0012 85.2996C79.1009 85.2996 83.2085 85.67 87.2124 86.3979C87.6297 86.473 87.9044 86.8719 87.8292 87.2889C87.754 87.706 87.3549 87.9831 86.9377 87.9054C83.0245 87.1931 79.0077 86.833 75.0012 86.833C49.8737 86.833 27.2264 100.772 15.8963 123.206C15.7615 123.473 15.492 123.629 15.2121 123.629V123.626Z" fill="white"/>
<path d="M119.619 111.524C143.389 135.283 143.389 173.804 119.619 197.564C95.8489 221.323 57.3099 221.323 33.5398 197.564C9.76971 173.804 9.76971 135.283 33.5398 111.524C57.3099 87.7653 95.8489 87.7653 119.619 111.524Z" fill="white" stroke="#1A1A18"/>
<path d="M97.7729 127.692L106.968 127.912V182.935L97.7729 182.821V127.692Z" fill="#72B6D3" stroke="#1A1A18"/>
<path d="M79.5469 155.426L88.8171 155.594V182.713L79.5469 182.598V155.426Z" fill="#72B6D3" stroke="#1A1A18"/>
<path d="M61.1777 121.455L70.5257 121.689V182.487L61.1777 182.37V121.455Z" fill="#72B6D3" stroke="#1A1A18"/>
<path d="M42.6719 130.212L52.0976 130.43V182.259L42.6719 182.142V130.212Z" fill="#72B6D3" stroke="#1A1A18"/>
</g>
<defs>
<clipPath id="clip0_764_137">
<rect width="150" height="149.93" fill="white" transform="translate(1312 78)"/>
</clipPath>
<clipPath id="clip1_764_137">
<rect width="150" height="149.93" fill="white" transform="translate(0 78)"/>
</clipPath>
</defs>
</svg>
